<?xml version="1.0" encoding="utf-8"?>
<!-- Generator: Adobe Illustrator 23.0.4, SVG Export Plug-In . SVG Version: 6.00 Build 0)  -->
<svg version="1.1" id="Layer_1" xmlns="http://www.w3.org/2000/svg" xmlns:xlink="http://www.w3.org/1999/xlink" x="0px" y="0px"
	 viewBox="0 0 864 864" style="enable-background:new 0 0 864 864;" xml:space="preserve">
<g>
	<path d="M849.62,628.61c-5.53,2.76-9.74,4.87-15.11,7.55c1.29,4.45,2,9.28,4.06,13.45c4.04,8.18,9.31,15.77,13.2,24.01
		c6.99,14.78,0.39,27.85-15.43,31.58c-8.88,2.09-17.78,4.13-26.71,5.97c-14.34,2.96-24.62-4.32-23.73-18.65
		c3.27-52.52-23.46-94.55-47.4-137.46c-3.61-6.47-11.26-10.69-20.6-19.19c-1.78,13.2-4.5,22.9-4.14,32.48
		c1.43,38.25,4.4,76.45,5.66,114.71c0.9,27.43-6.86,34.23-34.6,34.11c-12.2-0.05-24.5-0.96-36.56,0.36
		c-17.51,1.91-27.56-5.45-30.91-17.05c11.81-21.12,26.95-38.22,30.82-57.57c5.25-26.25,8.41-56.39,0.32-80.84
		c-8.11-24.49-29.84-45.27-48.43-65.02c-5.86-6.23-21.06-2.98-31.6-5.61c-27.68-6.9-55.14-14.64-82.95-22.12
		c-12.68,38.03-6.05,75.24-1.49,112.56c3.03,24.77,3.61,49.87,7.21,74.54c2.04,13.99,6.38,28.16,12.5,40.89
		c6.9,14.32,0.77,28.51-15.56,28.96c-20.1,0.55-40.39,1.63-60.27-0.55c-8.44-0.92-16.04-9.54-25.95-15.9
		c7-7.66,10.37-12.91,15.09-16.25c19.22-13.62,20.22-29.93,12.08-50.95c-17.04-44.01-32.05-88.81-49.02-136.46
		c-41.98,54.29-80.56,105.08-98.1,168.04c-1.45,5.21,1.64,12.42,4.28,17.9c7.25,15.03,0.82,27.3-15.7,27.11
		c-18.88-0.22-37.78-1.13-56.61-2.58c-13.46-1.04-20.75-16.97-10.83-26.15c24.96-23.1,28.09-52.27,32.55-83.76
		c4.8-33.9,19.83-66.23,28.59-99.72c10.91-41.66,20.03-83.78,29.75-125.74c1.06-4.59,0.99-9.44,1.69-16.81
		c-14.77,4.76-28.1,13.2-40.48,11.98c-14.58-1.43-20.59-15.49-15.01-34.19c-23.78,7.75-44.23,14.4-64.67,21.09
		c-4.05,1.33-8.13,4.27-12.05,4.02c-33.93-2.15-36.13,26.64-41.64,47.02c-6.17,22.83-1.36,47.51,10.54,68.9
		c3.09,5.56,12.48,12.02,17.66,11.04c9.36-1.76,11.96-10.02,6.66-19.87c-2.37-4.4-1.67-10.45-2.78-18.9
		c7.43,0,18.56-2.95,21.22,0.55c8.19,10.77,17.98,23.83,18.43,36.32c1.24,34.03-37.22,50.09-62.41,43.98
		c-42.71-10.36-53.12-46.33-68.92-77.77c-6.8-13.53-1.94-33.62-10-45.62c-7.35-10.96-24.98-15.02-39.02-22.64
		c3.22-1.47,6.69-3.06,10.84-4.96c-4.76-2.11-9.22-4.09-14.67-6.52c1.72-1.91,2.82-4.1,3.77-4.03
		c33.01,2.12,46.05-13.95,58.47-45.09c18.95-47.51,49.15-90.61,75.43-135.08c15.67-26.53,38.88-37.99,70.89-39.64
		c52.07-2.69,103.87-10.72,155.81-16.15c5.81-0.61,12.1,0.07,17.73,1.67c33.93,9.66,68.42,17.91,101.38,30.24
		c32.25,12.07,64.16,13,96.66,5.67c19.02-4.29,35.19,1.32,52.98,6.55c45.08,13.25,77.9,40.08,101.4,80.02
		c5.83,9.91,12.88,19.51,21.02,27.59c26.28,26.06,33.13,58.28,37.11,93.88c7.48,67.03,18.65,133.69,29.79,200.25
		C834.32,599.29,843.04,612.8,849.62,628.61z M498.34,362.81c24.3,40.24,47.96,79.43,72.59,120.23
		c47.53-59.63,93.01-116.68,139.51-175.02c-33.67-18.91-65.83-37.28-98.43-54.82c-3.26-1.75-10.98-0.08-13.71,2.78
		C564.75,291.21,531.73,326.95,498.34,362.81z M436.36,206.48c15.11,15.15,11.52,30.53,4.98,45.63c-9.89,22.81-5.5,43.58,7.43,64.81
		c47.09-23.08,93.86-46,145.14-71.13C538.17,231.88,487.27,219.18,436.36,206.48z M708.36,325.84c-1.05-0.22-2.1-0.45-3.15-0.67
		c-41.92,52.67-83.83,105.34-128.42,161.36c35.04,2.58,66.1,4.86,98.02,7.21C686.32,436.1,697.34,380.97,708.36,325.84z
		 M470.4,516.16c6.82-51.63,12.99-98.38,19.57-148.24c-36.5,16.91-70.42,32.62-106.07,49.13
		C412.5,449.83,439.93,481.25,470.4,516.16z M719.43,323.01c-1.3,0.35-2.6,0.71-3.9,1.06c-10.38,52.26-20.77,104.51-30.89,155.43
		c22.96-21.51,45.78-42.44,67.85-64.15c2.78-2.73,3.55-10.35,1.88-14.28C743.24,374.84,731.19,348.99,719.43,323.01z M340.66,548.38
		c10.47-14.69,18.53-25.97,26.57-37.27c7.52-10.57,5.17-54.37-3.64-63.21c-1.53-1.53-4.24-2.2-6.53-2.62
		c-19.43-3.55-38.88-6.95-60.95-10.85C311.24,473.13,325.24,508.94,340.66,548.38z M481.73,659.81c1.26-0.55,2.52-1.1,3.78-1.66
		c-4.59-39.67-9.01-79.36-13.99-118.97c-0.58-4.6-3.31-11.53-6.7-12.74c-17.96-6.43-36.45-11.37-58.46-17.93
		C432.81,561.61,457.27,610.71,481.73,659.81z M157.16,292.95c34.81-21.48,67.47-41.64,103.92-64.14
		c-27.29-5.67-49.65-10.64-72.17-14.68c-3.78-0.68-9.76,1.41-12.2,4.34c-12.74,15.23-24.66,31.13-36.8,46.73
		C145.97,274.95,151.03,283.09,157.16,292.95z M357.75,341.67c8.37,25.19,15.52,46.68,23.12,69.56c34.33-16.02,66-30.8,102.18-47.69
		C438.9,355.83,399.9,349.02,357.75,341.67z M764.04,402.99c8.99-24.41,16.35-44.04,23.31-63.82c0.85-2.4,0.48-6.31-0.99-8.29
		c-23.06-31.05-46.4-61.9-69.67-92.79c-1.16,0.62-2.32,1.24-3.48,1.86C729.66,292.69,746.1,345.42,764.04,402.99z M738.51,544.87
		c6.46-41.85,12.37-80.19,17.48-113.31c-22.14,20.73-46.63,43.67-72.08,67.5C701.47,513.79,718.53,528.1,738.51,544.87z
		 M582.97,262.07c-0.86-0.81-1.73-1.63-2.59-2.44c-42.21,20.82-84.43,41.65-128.96,63.62c15.66,12.69,28.68,23.25,42.39,34.36
		C524.21,325.04,553.59,293.55,582.97,262.07z M484.4,461.63c25.54,7.06,49.4,13.65,78.52,21.7
		c-23.55-39.23-43.93-73.17-66.73-111.14C491.91,404.6,488.31,431.96,484.4,461.63z M165.6,295.59c0.12,2.46,0.24,4.93,0.36,7.39
		c17.42,3.33,34.79,8.7,52.28,9.14c8.56,0.21,21.73-6.66,25.17-13.94c8.77-18.54,13.24-39.12,20.8-63.22
		C228.4,256.97,197,276.28,165.6,295.59z M420.7,282.28c-40.65-2.57-76.76-4.85-116.94-7.39c18.33,21.17,33.9,39.16,49.85,57.59
		C376.1,315.66,396.65,300.28,420.7,282.28z M618.22,184.88c-3.72,19.48-6.99,34.72-9.27,50.1c-0.49,3.31,1.59,8.94,4.24,10.47
		c26.98,15.64,54.32,30.66,81.56,45.86c0.87-1.11,1.74-2.23,2.61-3.34C671.77,254.63,646.18,221.3,618.22,184.88z M257.55,370.65
		c28.2-10.97,54.09-21.04,85.07-33.09c-33.93-10.24-62.05-18.73-92.43-27.91C252.7,330.51,254.92,348.92,257.55,370.65z
		 M706.15,288.6c1.12-0.48,2.25-0.97,3.37-1.45c-3.76-22.95-7.39-45.92-11.46-68.81c-0.44-2.46-2.92-5.56-5.23-6.54
		c-20.14-8.54-40.46-16.66-60.73-24.91c-0.54,0.96-1.07,1.91-1.61,2.87C655.71,222.7,680.93,255.65,706.15,288.6z M389.97,146.6
		c11.62,17.38,20.13,30.53,29.18,43.3c1.82,2.57,5.87,5.44,8.61,5.18c27.9-2.66,55.74-5.93,83.6-9.04c0.03-1.12,0.06-2.23,0.08-3.35
		C472.75,171.19,434.06,159.7,389.97,146.6z M585.04,236.44c0.42-0.81,0.84-1.62,1.26-2.43c-14.99-13.12-29.87-26.35-45.06-39.22
		c-2.56-2.17-6.61-4.14-9.74-3.84c-27.71,2.69-55.37,5.91-83.04,8.98c-0.03,0.86-0.05,1.73-0.08,2.59
		C493.93,213.82,539.49,225.13,585.04,236.44z M483.04,677.63c-23.23-46.67-44.75-89.93-66.28-133.18
		c3.84,29.48,13.5,57.41,16.65,86.06C436.73,660.78,457.86,667.08,483.04,677.63z M304.48,356.43c-3.05,22.82-5.88,41.34-7.73,59.96
		c-0.37,3.71,2.36,10.73,4.75,11.25c18.91,4.14,38.08,7.07,55.95,10.17C340.19,411.29,323.65,385.88,304.48,356.43z M303.33,202.62
		c-1.21,21.7-2.26,40.63-3.49,62.71c25.28-11.38,47.37-21.33,72.92-32.83C347.72,221.71,326.84,212.73,303.33,202.62z
		 M666.01,687.95c13.33,17.62,25.82,22.96,39.58,10.79c7.99-7.07,6.67-24.67,10.59-42.23c-33.49,14.66-60.61,26.54-90.28,39.53
		c8.67,5.04,15.26,8.87,22.63,13.16C654.4,702.08,659.65,695.69,666.01,687.95z M95.06,353.3c11.44-29.88,22.31-58.29,33.54-87.63
		c-5.51-2.07-10.93-4.11-17.2-6.48c-13.08,27.02-25.71,53.12-38.96,80.49C80.92,344.78,88.41,349.29,95.06,353.3z M391.67,436.41
		c-1.29,0.64-2.58,1.29-3.87,1.93c4.42,18.16,8.57,36.38,13.5,54.4c0.98,3.58,4.34,8.13,7.59,9.19
		c16.34,5.34,33.01,9.67,54.09,15.63C436.97,487.96,414.32,462.19,391.67,436.41z M413.92,272.41
		c-8.31-9.13-18.28-20.36-28.65-31.22c-1.76-1.85-5.87-3.64-7.77-2.83c-20.69,8.8-41.15,18.13-61.67,27.32
		c17.75,4.11,34.1,5.95,50.5,6.59C383.06,272.92,399.83,272.41,413.92,272.41z M776.41,494.46c-34.63,55.68-34.91,71.6,0,108.42
		C776.41,565.47,776.41,530.42,776.41,494.46z M704.07,529.92c-29.65-10.16-57.66-19.77-88.12-30.21
		c33,55.86,36.9,57.31,84.16,33.55C700.64,533,701.04,532.5,704.07,529.92z M545.34,189.21c20.68,18.02,37.57,32.74,56.41,49.16
		c3.54-21.25,6.38-38.33,9.63-57.84C589.36,183.43,569.83,185.99,545.34,189.21z M253.98,303.7c30.1,9.06,56.2,16.92,82.31,24.78
		c0.62-1.13,1.23-2.26,1.85-3.39c-14.19-16.35-28.39-32.69-43.07-49.61C281.67,284.68,269.7,292.9,253.98,303.7z M325.94,537.44
		c0.82-0.58,1.65-1.17,2.47-1.75c-11.81-30.13-23.63-60.26-36.97-94.3c-5.04,16.24-9.3,28.08-12.17,40.25
		c-0.95,4.02,0.23,10.3,2.95,13.12C296.34,509.42,311.28,523.3,325.94,537.44z M213.24,688.17c19.09,6.37,37.34,12.6,55.72,18.46
		c3.61,1.15,7.68,0.87,11.53,1.24c-0.19-4.38,1.4-10.81-0.87-12.79c-13.74-11.98-28.36-22.94-43.47-34.86
		C225.91,672.71,218.4,681.87,213.24,688.17z M783.24,601.89c1.07,0.76,2.14,1.51,3.21,2.27c7.09-12.87,20.65-26.15,19.86-38.52
		c-1.39-21.69-11.57-42.82-18.07-64.19c-1.67,0.28-3.33,0.55-5,0.83C783.24,535.48,783.24,568.68,783.24,601.89z M312.47,564.1
		c0.87-0.8,1.74-1.59,2.62-2.39c-12.93-20.08-25.85-40.17-40.9-63.55c-4.89,17.35-8.7,30.84-12.58,44.59
		C280.09,550.5,296.28,557.3,312.47,564.1z M58.91,406.42c3.36,18.28,6.14,33.44,7.69,41.86c11.47-10.41,24.78-22.49,37.78-34.3
		C90.84,411.73,76.11,409.28,58.91,406.42z M381.88,338.82c31.76,5.64,63.51,11.27,95.24,16.94
		C452.2,315.04,416.74,330.17,381.88,338.82z M748.75,523.81c32.75-50.94,34.5-64.78,13.82-92.05
		C757.93,462.64,753.34,493.23,748.75,523.81z M702.71,561.99c-17.36,0-30.37,0-43.18,0c0,17.39,0,34.02,0,56.46
		C675.21,597.95,687.47,581.92,702.71,561.99z M298.95,598.46c-15.06-18.09-26.85-32.26-40.44-48.6
		c-5.29,15.9-9.56,28.73-14.43,43.36C262.44,594.97,278.39,596.49,298.95,598.46z M830.23,647.77
		c-5.38-19.19-10.42-37.14-15.46-55.1c-1.18,0.09-2.36,0.19-3.53,0.28c-4.77,23.09-9.54,46.17-15.11,73.16
		C810.01,658.65,819.89,653.33,830.23,647.77z M106.55,341.71c21.52,6.16,28.13-0.99,41.66-42.07c-7.32-2.23-14.62-4.45-23.21-7.07
		C118.74,309.24,112.86,324.9,106.55,341.71z M103.42,515.9c3.37-23.15,5.93-40.69,8.96-61.52c-15.18,5.03-26.93,8.92-40.66,13.46
		C82.18,483.71,91.4,497.67,103.42,515.9z M168.88,350.58c1.34,2.27,2.68,4.54,4.02,6.8c17.11-5.78,33.99-12.42,51.41-17.07
		c14.76-3.94,20.15-11.62,15-28.79C215.34,324.81,192.11,337.69,168.88,350.58z M241.94,603.87c-1.72,19.28-2.98,33.52-4.42,49.66
		c15.57-3.54,28.67-6.52,42.74-9.71C267.67,630.7,256.58,619.14,241.94,603.87z M269.75,159.59c11.86,11.71,21.16,20.9,31.51,31.11
		c8.67-10.58,17.38-21.21,29.26-35.71C307,156.77,289.54,158.1,269.75,159.59z M704.56,620.64c0-17.26,0-31.82,0-50.07
		c-14.49,19.02-26.61,34.92-41.13,53.97C680.05,622.96,691.93,621.84,704.56,620.64z M440.2,231.69
		c-17.94,1.17-32.14,2.09-49.06,3.19c13.06,13.52,24,24.84,37.04,38.34C432.52,258.23,435.96,246.35,440.2,231.69z M451.69,699.79
		c3.91,19.73,16.82,20.09,31.02,19.77c9.6-0.22,18.68-1.93,17.03-12.78c-1.4-9.22-7.07-18.53-20.38-14.38
		C470.23,695.25,460.88,697.36,451.69,699.79z M833.34,655.48c-13.44,14.31-25.57,27.21-37.67,40.09c16.59,16,13.68-7.94,22.42-9.16
		c3.63,3.44,7.36,6.98,11.65,11.04c6.54-6.02,12.2-11.24,18.35-16.9C843.21,672.26,838.76,664.68,833.34,655.48z M366.76,187.09
		c-10.72-12.06-18.86-21.22-27.76-31.25c-10.33,12.59-19.2,23.41-30.43,37.11C329.37,190.86,345.92,189.19,366.76,187.09z
		 M321.58,198.57c-0.48,1.24-0.96,2.49-1.44,3.73c17.91,7.73,35.82,15.46,57.07,24.64c-2.97-13.65-5.07-23.28-7.27-33.42
		C352.58,195.33,337.08,196.95,321.58,198.57z M314.52,355.9c8.44,15.19,15.66,28.2,25.56,46.03c3.05-22.34,5.38-39.46,8.06-59.14
		C335.26,347.81,325.81,351.5,314.52,355.9z M253.71,293.07c41.4-21.97,42.37-25.85,16.52-54.12
		C264.94,256.27,259.94,272.66,253.71,293.07z M301.46,605.1c-16.95-1.08-31.29-1.99-47.46-3.02c12.26,13.45,22.41,24.57,34.02,37.3
		C292.78,627.23,296.45,617.87,301.46,605.1z M434.28,224.15c-20.99-10.45-37.09-18.46-56.06-27.91c2.57,12.51,4.54,22.1,6.73,32.73
		C400.85,227.42,415.05,226.03,434.28,224.15z M259.7,161.88c-9.94,8.73-17.93,15.74-28.79,25.28c21,1.97,37.69,3.53,57.82,5.42
		C277.46,180.67,269.24,171.97,259.7,161.88z M781.37,448.61c1.82-27.32,3.48-52.38,5.15-77.43
		C772.72,395.54,760.89,419.98,781.37,448.61z M391.54,312.54c18.29,2.11,31.82,3.68,48.36,5.59c-4.3-12.21-7.56-21.49-11.64-33.08
		C416.29,294.01,405.95,301.75,391.54,312.54z M293.42,200.09c-21.53-1.85-37.8-3.25-58.49-5.03c14.11,10.99,24.41,19,35.92,27.96
		C277.72,216.04,283.55,210.12,293.42,200.09z M306.03,596.22c5.44-7.54,10.05-13.93,15.36-21.29
		c-16.54-6.76-30.92-12.64-45.31-18.53c-0.45,0.83-0.9,1.66-1.34,2.49C284.75,570.82,294.75,582.75,306.03,596.22z M377.21,187.4
		c12.42,2.05,22.14,3.66,36.27,6c-10.97-15.54-19.29-27.33-30.04-42.57C380.92,165.61,379.24,175.49,377.21,187.4z M158.82,345.28
		c16.65-2.39,20.47-14.89,19.82-26.43c-0.3-5.26-11.12-9.92-20.67-17.7c0,16.41-0.04,26.67,0.04,36.92
		C158.02,340.27,158.49,342.47,158.82,345.28z M252.97,220.14c-28.31-29.57-29.85-29.9-58.05-12.11
		C214.81,212.18,232.89,215.95,252.97,220.14z M804.97,590.79c-26.27,26.87-27.61,33.22-12.99,60.68
		C796.35,631.03,800.45,611.87,804.97,590.79z M148.89,208.51c-0.81-0.43-1.62-0.86-2.43-1.29c-10,14.59-20,29.18-30.97,45.17
		c6.78,2.69,11.54,4.59,18.08,7.19C138.97,241.58,143.93,225.04,148.89,208.51z M73.22,400.04c41.59,12.26,45.22,11.07,48.4-14.35
		C106.32,390.22,91.54,394.61,73.22,400.04z M796.5,390.83c-1.54-0.25-3.08-0.5-4.62-0.75c-1.53,23.01-3.05,46.02-4.58,69.03
		c1.88,0.1,3.77,0.2,5.65,0.31C808.67,437.42,791.72,413.47,796.5,390.83z M198.73,164.92c9.69,7.97,16.77,13.79,24.76,20.36
		c8.36-7.77,15.88-14.76,27-25.1C230.68,161.99,216.52,163.29,198.73,164.92z M146.77,239.68c0.96,0.76,1.93,1.53,2.89,2.29
		c8.66-11.35,17.33-22.71,26.09-34.19c-4.99-6.18-8.88-10.99-14.47-17.92C155.84,208.52,151.3,224.1,146.77,239.68z M141.52,530.82
		c-2.93-8.36-4.8-14.05-6.92-19.64c-1.93-5.1-4.14-10.09-7.53-18.3c-6.45,11.95-10.87,20.14-15.86,29.39
		c5.75,1.93,9.59,3.38,13.52,4.48C129.29,528.02,133.94,529,141.52,530.82z M696.31,629.76c-39.73-1.05-41.42,0.25-40.01,26.76
		C668.42,648.41,680.23,640.52,696.31,629.76z M296.12,209.25c-9.35,7.59-15.72,12.77-22.17,18.01c6.17,10.05,11,17.9,15.82,25.76
		c1.28-0.4,2.55-0.81,3.83-1.21C294.39,238.44,295.18,225.06,296.12,209.25z M345.42,152.52c9.47,10.63,16.68,18.72,26,29.19
		c1.99-14.14,3.43-24.38,5.07-36.04C365.97,147.99,357.96,149.76,345.42,152.52z M190.81,167.66c-2.14,12.35-3.84,22.2-6.01,34.71
		c11.61-4.91,20.73-8.76,31.99-13.52C207.31,181.13,199.99,175.16,190.81,167.66z M706.93,630.54
		c-13.33,8.97-24.01,16.16-34.69,23.34c0.55,1.35,1.1,2.69,1.64,4.04c12.27-2.44,24.54-4.88,37.76-7.51
		C709.93,643.2,708.75,638.22,706.93,630.54z M243.71,659.45c11.63,6.67,19.91,11.42,29.61,16.99c3.39-9.2,5.95-16.15,9.5-25.78
		C269.03,653.75,258.62,656.1,243.71,659.45z M800.64,463.12c-15.59,11.75-15.19,21.51,0,47.73
		C800.64,495.6,800.64,480.49,800.64,463.12z M111.68,423.47c-11.1,11.63-19.74,20.67-31.18,32.66
		C113.74,448.2,113.74,448.2,111.68,423.47z M353.97,371.24c-0.03,16.59-18.64,34.93,5.99,52.46
		C357.72,404.05,355.84,387.64,353.97,371.24z M325.68,565.64c10.14-12.16,6.88-17.32-27.2-42.43
		C309.07,539.73,317.26,552.5,325.68,565.64z M642.33,495.53c-1.03,1.62-2.06,3.23-3.09,4.85c17.44,5.9,34.88,11.8,52.33,17.7
		c0.74-2.43,1.48-4.87,2.22-7.3C676.63,505.7,659.48,500.62,642.33,495.53z M467.27,688.79c-15.01-4.4-32.1-15.77-40.88,9.77
		C440.99,695.07,454.13,691.93,467.27,688.79z M148.76,318.12c-4.63,8.74-9.27,17.49-14,26.42
		C152.29,351.27,152.29,351.27,148.76,318.12z M730.22,335.51c1.75-0.49,3.5-0.98,5.25-1.46c-6.43-20.49-12.87-40.98-19.3-61.48
		c-1.28,0.38-2.55,0.76-3.83,1.14C718.3,294.31,724.26,314.91,730.22,335.51z M709.84,537.24c-12.8,5.4-23.52,9.92-34.24,14.44
		C687.38,549.61,706.95,565.44,709.84,537.24z M411.25,323.98c-13.84-0.89-29.75-12.3-40.96,7.29
		C384.81,328.69,398.03,326.33,411.25,323.98z M389.3,497.14c1.83-0.72,3.66-1.45,5.48-2.17c-3.24-13.34-6.48-26.68-9.72-40.01
		C385.73,469.24,377.41,485.47,389.3,497.14z"/>
</g>
</svg>
