<?xml version="1.0" encoding="utf-8"?>
<!-- Generator: Adobe Illustrator 23.0.4, SVG Export Plug-In . SVG Version: 6.00 Build 0)  -->
<svg version="1.1" id="Layer_1" xmlns="http://www.w3.org/2000/svg" xmlns:xlink="http://www.w3.org/1999/xlink" x="0px" y="0px"
	 viewBox="0 0 864 864" style="enable-background:new 0 0 864 864;" xml:space="preserve">
<g>
	<path d="M589.66,88.66c32.33-5.8,63.05-11.03,93.62-16.96c8.09-1.57,13-0.05,18.03,6.88c17.55,24.21,18,24.12-1.37,47.01
		c-16.8,19.84-33.86,39.48-51.16,58.89c-4.02,4.51-4.93,8.18-2.74,13.93c19.95,52.39,39.12,105.08,59.56,157.28
		c9.17,23.43,21.03,45.8,30.93,68.96c2.07,4.84,2.54,11.62,0.93,16.59c-29.24,90-65.52,177.22-108.7,261.31
		c-21.98,42.8-29.16,88.96-39.61,134.63c-1.51,6.58-2.57,13.3-4.63,19.7c-0.87,2.71-3.77,4.77-5.75,7.13
		c-1.82-2.2-4.53-4.11-5.32-6.63c-7.11-22.57-13.88-45.26-20.77-67.9c-5.25-17.27-10.03-34.7-16.1-51.68
		c-1.95-5.46-6.4-11.18-11.29-14.23c-25.27-15.71-50.41-31.88-76.95-45.16c-11.47-5.74-26.16-5.54-39.5-6.92
		c-22.49-2.33-45.09-3.54-67.59-5.69c-7.68-0.73-11.27,1.59-13.61,9.27c-6.45,21.22-14.36,41.99-20.75,63.23
		c-2.23,7.41-5.44,11.43-13.1,10.39c-7.89-1.07-10.24,3.32-12.02,9.85c-8.59,31.57-17.36,63.09-26.47,94.5
		c-1.07,3.68-4.66,6.63-7.08,9.91c-1.96-3.53-5.05-6.87-5.71-10.63c-5.46-31.49-10.58-63.03-15.52-94.61
		c-0.98-6.25-3.28-9.82-10.08-8.96c-8.83,1.11-11.61-3.21-12.22-11.63c-3.63-49.96-7.9-99.88-11.42-149.85
		c-0.47-6.69-3.38-9.13-8.82-11c-17.09-5.87-34.14-11.84-51.09-18.09c-2.89-1.07-5.2-3.71-7.77-5.62c1.99-2.44,3.54-5.57,6.05-7.22
		c35.59-23.45,72.66-44.21,112.24-60.2c4.38-1.77,9.49-2.3,14.28-2.39c46.37-0.9,92.87,0.28,139.08-2.83
		c49.84-3.36,99.41-10.68,150.6-16.44c-0.79-14.22-1.44-27.94-2.32-41.63c-2.06-31.96-4.2-63.92-6.38-95.88
		c-3.53-51.87-7.19-103.73-10.63-155.6c-1.42-21.43-2.75-42.89-3.4-64.35c-0.18-5.8,1.79-11.85,3.63-17.5
		c5.02-15.37,10.29-30.67,15.93-45.83c1.49-4.01,3.92-8.31,7.17-10.92c12.63-10.14,25.66-19.8,38.8-29.27
		c2.36-1.7,5.94-1.69,8.96-2.47c0.55,3.08,1.94,6.28,1.51,9.22c-3.4,23.46-7.17,46.87-10.76,70.3
		C589.96,82.01,589.96,84.56,589.66,88.66z M581.34,812.87c0.75,0,1.5-0.01,2.25-0.01c0.38-1.74,0.72-3.48,1.14-5.2
		c6.01-24.38,9.31-49.86,18.66-72.89c16.96-41.76,36.91-82.35,56.79-122.85c13.7-27.92,23.77-55.93,24.82-87.78
		c1.31-39.81,6.53-79.49,9.82-119.24c1.85-22.38,4.93-44.64-6.4-66.16c-6.78-12.88-11.05-27.15-15.87-41
		c-22.82-65.51-48.64-129.6-87.5-187.6c-2.13-3.18-5.46-8.21-7.96-8.05c-14.03,0.86-27.98,3.05-41.99,4.79
		C550.62,343.69,565.98,578.28,581.34,812.87z M565.46,735.12c0.22-4.07,0.45-5.57,0.36-7.04c-3.59-54.08-7.21-108.15-10.81-162.23
		c-1.82-27.42-3.62-54.84-5.36-82.26c-0.36-5.69-0.82-10.4-8.85-9.44c-45.16,5.42-90.38,10.39-135.5,16.09
		c-3.78,0.48-8.65,4.51-10.22,8.11c-6.75,15.49-12.22,31.52-18.65,47.16c-2.74,6.66-1.95,11.83,2.34,17.62
		c8.28,11.18,16.16,22.69,23.57,34.46c25.55,40.54,51.68,79.75,98.64,99.89C523.15,706.98,543.03,721.81,565.46,735.12z
		 M385.56,493.02c-41.36,0-81.27,0.21-121.16-0.17c-8.22-0.08-11.83,3.02-14.36,10.54c-13.66,40.6-27.86,81.02-41.63,121.58
		c-1.27,3.75-1.41,8.1-1.13,12.11c1.16,16.89,2.7,33.75,4.06,50.63c1.33,16.47,2.6,32.94,3.99,50.61c22.61,0,44.44-0.8,66.16,0.32
		c11.75,0.61,15.84-3.93,19.43-14.38c16.37-47.61,33.56-94.95,50.86-142.24C362.59,552.41,374.11,523.08,385.56,493.02z
		 M591.02,99.09c16.1,27.78,31.39,54.18,47.24,81.53c20.96-24.18,40.84-46.78,60.2-69.81c2.73-3.24,5.43-10.58,3.82-12.65
		c-5.25-6.74-7.51-18.26-20.48-15.77C652.29,88.05,622.7,93.29,591.02,99.09z M368.68,566.65c-11.67,30.52-22.46,58.73-33.75,88.25
		c33.37,2.88,65.19,5.62,99.56,8.58C412.01,630.42,391.15,599.73,368.68,566.65z M589.22,18.52
		c-29.32,14.44-48.93,45.39-49.24,77.16c5.6-0.77,11.06-1.6,16.54-2.25c20.74-2.47,21.01-2.4,24.58-22.55
		C584.14,53.78,586.46,36.55,589.22,18.52z M695.44,519.99c0.85,0.05,1.69,0.1,2.54,0.16c10.1-27.83,20.22-55.66,30.23-83.53
		c0.58-1.63,0.88-3.88,0.21-5.35c-6.48-14.25-13.19-28.39-19.84-42.56c-0.8,0.13-1.59,0.27-2.39,0.4
		C702.61,432.74,699.03,476.37,695.44,519.99z M204.51,595.82c0.85,0.03,1.7,0.07,2.55,0.1c11.06-31.88,22.12-63.75,33.99-97.97
		c-14.55,6.5-26.56,11.62-38.3,17.32c-2.14,1.04-4.61,4.52-4.45,6.7C200.09,546.61,202.37,571.21,204.51,595.82z M273.42,749.91
		c-13.36,0-25,0-37.38,0c4.5,27.08,8.79,52.89,13.08,78.7c0.79-0.04,1.57-0.08,2.36-0.12C258.69,802.61,265.92,776.73,273.42,749.91
		z M142.75,550.51c17.53,6.18,32.2,11.35,48.71,17.17c-1.22-15.38-2.28-28.9-3.51-44.43C172.4,532.63,158.98,540.72,142.75,550.51z
		 M548.03,738.23c7.14,23.56,13.79,45.47,20.43,67.37c0.86-14.94-0.86-29.47-0.45-43.94C568.39,747.95,560.5,742.94,548.03,738.23z"
		/>
</g>
</svg>
