<?xml version="1.0" encoding="utf-8"?>
<!-- Generator: Adobe Illustrator 23.0.4, SVG Export Plug-In . SVG Version: 6.00 Build 0)  -->
<svg version="1.1" id="Layer_1" xmlns="http://www.w3.org/2000/svg" xmlns:xlink="http://www.w3.org/1999/xlink" x="0px" y="0px"
	 viewBox="0 0 864 864" style="enable-background:new 0 0 864 864;" xml:space="preserve">
<g>
	<path d="M34.86,484.23c-6.82,20.05-13.07,38.45-19.33,56.86c-0.52-0.03-1.04-0.06-1.56-0.08c-1.66-21.1-3.56-42.18-4.91-63.3
		c-1.07-16.7-1.94-33.44-2.07-50.17c-0.27-35.53,9.2-67.49,34.5-93.89c12.17-12.71,22.85-26.84,34.78-39.79
		c3.75-4.07,9.01-7.68,14.26-9.29c47.37-14.53,94.88-28.55,142.35-42.75c2.44-0.73,4.82-1.7,8.79-3.11
		c-5.73-2.1-9.97-3.66-16.14-5.93c20.42-6.91,39.14-13.25,59.07-19.99c-3.7-2.32-6.31-3.96-10.73-6.73
		c15.14-3.48,28.8-6.62,43.37-9.97c-2.3-2.41-4.72-4.94-7.15-7.48c0.09-0.76,0.18-1.52,0.26-2.28c20.44,0.96,40.89,1.92,61.42,2.88
		c-1.11-2.32-2.6-5.41-4.92-10.26c9.12,3.11,16.95,5.62,24.68,8.44c20.1,7.35,40.23,14.63,60.15,22.43
		c5.53,2.16,8.97,1.01,13.32-2.62c12.1-10.1,24.69-19.62,37.16-29.28c1.32-1.02,3.12-1.4,5.39-2.37c0.22,3.01,0.4,5.46,0.71,9.55
		c19.66-13.45,41.66-13.11,64.51-12.98c-2.54,1.35-5.08,2.71-7.13,3.8c13.7,5.63,26.03,10.7,38.35,15.77
		c-0.13,0.72-0.26,1.44-0.39,2.17c-2.48,0.92-4.96,1.84-6.24,2.31c8.19,8.62,16.47,17.35,26.13,27.53
		c-4.25,0.87-6.17,1.27-8.92,1.84c3.92,10.93,7.73,21.53,12.14,33.81c-5.71-3.16-9.85-5.45-14-7.75c-0.83,0.4-1.66,0.81-2.49,1.21
		c2.69,6.98,5.02,14.13,8.22,20.87c1.72,3.62,4.63,6.85,7.54,9.7c9.26,9.05,12.61,19.78,11.3,32.62c-0.41,4.02,1.22,8.7,3.17,12.41
		c5.59,10.64,12.11,20.8,17.67,31.45c2.6,4.97,9.77,9.59,2.95,16.66c-0.62,0.64,1.35,3.61,1.88,5.56
		c4.07,14.92,8.82,29.71,11.8,44.85c1.39,7.06-0.54,14.8-1.18,22.22c-1.24,14.48-2.02,29.05-4.25,43.38
		c-0.92,5.92,0.47,9.22,4.55,12.85c42.03,37.44,101.04,18.72,113.99-37.04c10.05-43.28-3.9-80.48-33.4-112.33
		c-8.44-9.12-18.21-17.01-28.04-26.08c59.39,7.22,99,56.18,102.04,129.61c11.18-29.41,12.12-60.19,11.29-91.35
		c9.81,17.81,15.44,36.78,16.93,56.65c3.92,52.32-10.88,98.13-49.51,134.86c-40.71,38.71-102.27,48.06-150.07,17.22
		c-1.42-0.92-3.08-1.48-3.82-1.83c-6.41,19.02-12.34,37.85-19.29,56.3c-1.6,4.26-6.04,8.6-10.26,10.51
		c-10.11,4.58-20.81,7.92-31.42,11.33c-2.52,0.81-6.23,0.96-8.28-0.34c-12.1-7.65-23.88-15.81-36.62-24.38
		c4.46-2.6,8.5-4.1,11.34-6.84c3.06-2.95,6.4-6.8,7.17-10.73c2.26-11.54,8.18-14.46,17.57-7.39c3.17,2.39,5.85,5.41,9.19,8.56
		c6.98-9.1,11.09-19.16,12.06-30.51c0.1-1.17,0-2.35,0.09-3.52c2.42-31.3,1.94-61.95-16.13-89.72c-4-6.15-5.56-13.9-8.73-22.2
		c-3.48,5.89-6.24,10.58-9.06,15.36c-12.05-9.67-12.13-32.83-35.74-30.53c-2-2.47-4.91-6.06-8.65-10.69
		c-4.78,13.91-9.17,26.67-13.96,40.6c-2.41-4.24-4.12-7.25-6.86-12.08c-4.43,10.71-12.23,17.85-8.03,30.44
		c10.55,31.7,20.49,63.65,29.27,95.88c4.13,15.15,4.63,31.26,7.53,46.8c1.42,7.58,3.66,15.31,7.16,22.13
		c5.87,11.43,13.06,22.19,20.62,34.78c-4.07,0.3-6.79,0.65-9.51,0.67c-24.39,0.16-48.79,0.03-73.17,0.5
		c-7.03,0.14-8.29-2.56-7.87-8.86c0.89-13.48,1.25-27.01,1.37-40.52c0.03-3.27-0.77-7.3-2.75-9.71
		c-19.18-23.38-38.69-46.49-58.14-69.65c-0.32-0.38-1.04-0.43-2.47-0.98c-6.63,18.98-13.26,37.92-19.86,56.88
		c-3.47,9.97-6.42,20.16-10.49,29.87c-2.83,6.73-1.86,12.08,1.73,18.09c5.98,10.01,11.25,20.44,17.49,31.92c-34.3,0-67.2,0-102.1,0
		c13.49-37.55,15.96-75.93,16.75-115.8c-2.85,2.18-4.93,3.76-8.09,6.18c0-17.45,0-33.7,0-52.75c-12.05,10.92-22.28,20.2-34.26,31.06
		c1.21-6.69,2.06-11.32,3.35-18.45c-10.8,8.3-20.13,15.06-28.94,22.41c-4.59,3.83-8.84,4.59-14.52,2.91
		c-13.76-4.1-27.74-7.47-41.56-11.4c-6.86-1.95-10.57-0.26-9.48,7.34c3.59,24.97,5.93,50.25,11.66,74.73
		c2.97,12.69,12.04,23.96,18.38,35.86c2.46,4.62,5.02,9.19,8.12,14.88c-32.95,0-64.71,0-97.36,0c-2.89-26.29,1.59-53.43-9.29-81.7
		c-4.6,12.83-11.82,23.69-11.36,34.22c0.47,10.83,8.44,21.33,13.64,33.13c-15.29,0-29.29,0.13-43.29-0.14
		c-2.07-0.04-4.24-1.81-6.14-3.1c-13.11-8.91-26.02-18.12-39.29-26.77c-4.51-2.94-4.64-5.67-2.75-10.15
		c9.82-23.22,19.14-46.65,29.16-69.78c4.09-9.44,5.29-18.37,3.82-28.85c-2.97-21.14-8.83-41.21-17.05-60.75
		C37.34,488.59,36.46,487.21,34.86,484.23z M236.96,497.94c11.34-12.66,22.23-24.56,32.81-36.73c4.97-5.72,10.29-11.44,13.82-18.04
		c13.55-25.36,26.29-51.15,39.72-76.57c2.59-4.9,2.7-8.06-1.15-12.27c-13.47-14.73-26.25-30.11-40.03-44.54
		c-3.07-3.21-9.33-5.39-13.8-4.93c-31.51,3.31-62.96,7.25-94.34,11.56c-3.56,0.49-8.04,3.86-9.68,7.11
		c-8.31,16.48-16.02,33.29-23.45,50.19c-1.35,3.06-1.66,7.66-0.36,10.63c9.09,20.65,18.65,41.1,28.29,61.5
		c1.45,3.06,3.67,6.19,6.37,8.14C195.34,468.6,215.74,482.91,236.96,497.94z M161.48,316.69c-13.9-4.1-26.85-7.59-39.55-11.8
		c-5.7-1.89-8.84-1.13-12.06,4.33c-16.37,27.82-33.31,55.3-49.67,83.13c-2.39,4.07-3.82,9.32-3.87,14.04
		c-0.32,33.21-0.38,66.43,0.06,99.63c0.07,5.49,1.82,11.67,4.73,16.3c15.15,24.11,30.96,47.8,46.45,71.7
		c1.06,1.64,1.37,3.76,2.03,5.65c0.9-0.82,1.8-1.64,2.7-2.46c5.38-31.3,10.76-62.59,16.49-95.96c15.52,23.3,29.77,44.7,45.38,68.13
		c1.64-5.24,3.55-8.39,3.4-11.45c-0.38-7.89-0.71-15.99-2.74-23.56c-13.05-48.7-26.44-97.31-40.05-145.87
		c-1.87-6.69-1.49-12.33,1.54-18.52C144.8,352.7,152.81,335.17,161.48,316.69z M602.49,213.47c0.27-0.74,0.54-1.48,0.81-2.23
		c-11.65-5.56-23.3-11.12-36.59-17.47c5.61-1.5,9.06-2.42,12.51-3.34c-0.08-0.76-0.16-1.53-0.24-2.29c-12.46,0-24.93,0-37.39,0
		c-0.61-0.95-1.22-1.89-1.83-2.84c2.3-0.66,4.6-1.31,6.91-1.97c-20.76-3.53-34.39,11.53-51.96,15.66c0-2.65,0-4.64,0-8.09
		c-10.35,9.51-19.83,17.81-28.76,26.66c-3,2.97-5.23,7.13-6.72,11.15c-4.17,11.26-7.7,22.76-11.64,34.11
		c-2.15,6.2-4.62,12.28-7.15,18.94c-16.08-9.82-31.16-19.04-46.25-28.26c14.79,31.82,32.8,61.38,47.08,92.65
		c14.37,31.46,25.05,64.61,37.58,97.64c6.02-22.07,11.98-43.87,18.49-67.75c-6.36,4.37-10.62,7.3-15.21,10.45
		c-0.95-2.47-1.93-4.31-2.38-6.27c-4.62-20.1-12.92-38.19-28.29-52.49c-0.85-0.8-1.89-1.65-2.24-2.69
		c-1.04-3.14-2.95-6.57-2.45-9.54c2.42-14.44,5.19-28.85,8.6-43.09c0.81-3.37,3.97-7.17,7.08-8.79c9.35-4.87,19.12-9,28.93-12.87
		c2.59-1.02,6.46-1.08,8.85,0.15c6.76,3.49,13.28,7.57,19.38,12.11c1.89,1.4,3.27,5.21,2.89,7.6c-1.04,6.47-3.16,12.77-4.85,19.14
		c1.08,0.49,2.16,0.98,3.24,1.47c5.6-10.37,11.19-20.74,17.01-31.52c2.62,4.53,5.12,8.85,8.56,14.78
		c2.31-11.23,4.21-20.49,6.32-30.76c6.53,5.64,12.1,10.46,18.15,15.7c2.74-7.3,5.07-13.52,7.7-20.52
		c8.6,7.86,16.43,15.01,25.96,23.72c-2.27-10.89-4.03-19.3-6.06-29.03c4.52,2.24,7.65,3.79,10.78,5.34c0.55-0.55,1.1-1.1,1.65-1.65
		c-5.01-7.63-10.02-15.26-15.37-23.41C598.25,213.72,600.37,213.59,602.49,213.47z M445.39,432.34c0-20.73,0.43-39.19-0.23-57.61
		c-0.24-6.74-1.81-14.04-4.92-19.96c-17.04-32.45-34.73-64.56-52.23-96.76c-1.42-2.62-3.15-5.08-5.3-8.5
		c-16.75,37.02-32.79,72.48-49.17,108.68C370.46,382.67,407.04,406.92,445.39,432.34z M282.99,295.24
		c54.47-29.7,104.75-63.95,165.83-74.81c-0.18-1.21-0.36-2.41-0.54-3.62c-20.32-7.32-40.64-14.63-62.49-22.5
		c1.49,4.23,2.21,6.28,3.21,9.14c-18.68-2.83-35.9-11.21-55.4-7.1c2.93,3.09,5.19,5.46,7.92,8.34c-14.35,0.87-27.68,1.68-41,2.49
		c0.04,0.88,0.08,1.76,0.12,2.64c1.76,1.3,3.52,2.6,6.06,4.49c-17.96,5.99-34.94,11.65-53.94,17.99c6.84,2.57,11.51,4.32,17,6.38
		c-25.03,19.16-49.23,37.7-73.43,56.23c0.29,0.5,0.58,0.99,0.86,1.49c30.38-8.75,60.77-17.5,92.06-26.51
		C287.04,278.85,285.24,286.14,282.99,295.24z M426.12,487.54c-31.69-41-62.57-80.94-93.81-121.36
		c-16.33,37.44-25.57,119.36-18.29,162.03C351.14,514.74,388.04,501.36,426.12,487.54z M619.4,405.11c0.73,0.38,1.46,0.77,2.19,1.15
		c4.18-18.35,16.2-29.45,33.05-36.04c-3.75-6.26-6.72-11.23-10.3-17.2c-7.2,4.16-13.87,8.01-20.55,11.86
		c-0.52-0.66-1.04-1.32-1.57-1.98c6.25-4.94,12.51-9.87,18.9-14.92c-8.21-21.75-8.31-21.79-30.45-14.95
		c-0.48,0.15-1.1-0.19-2.26-0.41c-1.95-4.83-3.87-10.04-6.13-15.08c-4.91-10.91-17.53-15.09-26.97-8.27
		c-11.49,8.3-23.45,14.23-38.1,13.32c-5.03-0.31-10.12,0.39-17.2,0.73c14.31,16.43,27.12,31.13,40.41,46.39
		c10.03-8.97,25.41-10.73,27.8-27.01c-8.91,3.52-15.9,0.54-20.63-9.77c9.39,9.89,18.62,8.22,28.97-2.03
		c-3.99,15.71-7,28.12-20.7,33.97c-3.19,1.36-6.18,3.48-8.83,5.76c-1.6,1.37-3.54,3.84-3.34,5.6c2.21,19.37,1.05,39.41,11.26,58.86
		c14.97-5.91,30.28-8.7,44.88,5.54c1.72-22.79-9.92-39.71-11.57-59.01C611.98,389.45,615.69,397.28,619.4,405.11z M581.62,441.35
		c5.2,15.53,10.04,31.44,15.82,47.01c14.3,38.54,40.11,65.34,79.78,78.55c43.92,14.62,95.92-2.72,120.73-42.45
		c-3.77,2.9-6.21,4.75-8.62,6.64c-37.21,29.24-86.04,29.05-122.62-0.45c-25.14-20.27-39.62-47.38-49.91-77.26
		C611.16,437,599.23,432.57,581.62,441.35z M354.92,628.03c14.72-16.33,28.03-30.98,41.15-45.8c1.47-1.66,2.04-4.18,2.8-6.38
		c6.85-19.93,13.71-39.85,20.44-59.82c2.38-7.07,4.4-14.27,7.04-22.88c-16.02,5.72-30.12,11.39-44.61,15.73
		c-12.74,3.82-21.22,11.46-29.3,21.95c-9.54,12.4-12.98,23.95-8.87,39.32C348.44,588.36,350.95,607.21,354.92,628.03z
		 M490.42,501.49c-0.85,0.02-1.7,0.04-2.54,0.05c-9.48,27.01-19.05,53.99-28.21,81.1c-0.58,1.71,1.41,5.35,3.23,6.62
		c11.29,7.9,22.86,15.4,34.36,22.99c8.67,5.72,17.37,11.4,28.4,18.64C518.85,584.43,501.2,543.89,490.42,501.49z M329.27,354.37
		c15.98-35.28,31.25-69,46.52-102.72c-0.47-0.38-0.94-0.76-1.4-1.14c-30.32,16.84-60.63,33.68-91.85,51.02
		C298.28,319.33,313.18,336.18,329.27,354.37z M653.71,562.58c34.5,29.61,85.38,32.78,124.72,8.29
		c40.14-24.98,62.52-61.76,69.45-108.12c2.26-15.09,2.88-30.31-1.41-45.35c-1.94,7.66-2.98,15.39-4.31,23.07
		c-4.95,28.65-19.82,53.03-33.58,77.91c-28.47,51.47-88.17,72.34-142.18,49.51C662.18,566.11,657.94,564.35,653.71,562.58z
		 M151.18,421.23c-0.38,0.14-0.75,0.28-1.13,0.42c11.75,44.29,23.5,88.59,35.3,133.08c15.78-17.36,31.69-34.86,48.09-52.9
		c-19.68-13.9-38.82-26.9-57.3-40.77c-5.53-4.15-9.96-10.28-13.6-16.29C158.04,437.35,154.9,429.12,151.18,421.23z M126.59,692.11
		c1,0.39,2,0.79,3,1.18c16.65-11.91,33.42-23.67,49.8-35.94c1.85-1.39,2.34-5.77,2.05-8.62c-0.99-9.61-2.58-19.16-4.03-28.71
		c-1.82-12.02-3.73-24.02-5.95-38.24c-15.46,22.08-29.57,42.2-43.59,62.38c-0.79,1.13-1.22,2.75-1.23,4.14
		C126.56,662.9,126.59,677.5,126.59,692.11z M98.33,290.49c0,0.68,0.01,1.37,0.01,2.05c20.75,6.14,41.44,12.5,62.32,18.15
		c2.91,0.79,7.34-1.17,10.1-3.19c14.43-10.59,28.56-21.6,42.78-32.47c11.98-9.16,23.95-18.32,35.92-27.49
		c-0.28-0.54-0.56-1.07-0.84-1.61C198.52,260.78,148.43,275.64,98.33,290.49z M125.47,637.89c14.67-21.03,28.81-41.04,42.48-61.38
		c1.2-1.78,0.08-6.17-1.35-8.49c-6.29-10.22-13.04-20.15-19.72-30.12c-4.62-6.89-9.39-13.69-15.4-22.43
		c-3.99,23.4-6.9,44.46-11.33,65.19C116.05,599.84,116.69,618.19,125.47,637.89z M486.22,375.31c5.16-4.67,11.64-7.68,12.81-12.1
		c4.55-17.19,15.07-33.46,9.48-52.62c-1.01-3.45,0.13-7.51,0.24-11.29c0.07-2.25,0.81-4.82,0-6.71
		c-5.93-13.95-12.29-17.07-26.2-12.29c-3.13,1.07-6.32,4.06-7.94,7.02c-4.93,8.97-8.68,18.6-13.72,27.5
		c-3.37,5.97-2.61,10.18,2.2,14.61c9.52,8.77,15.92,19.37,18.49,32.23C482.37,365.65,484.17,369.42,486.22,375.31z M274.01,467.35
		c-0.56-0.19-1.11-0.38-1.67-0.56c-28.48,31.35-56.96,62.7-86.27,94.96c15.21,4.18,29.07,7.63,42.67,11.9
		c6.07,1.91,8.06,0.18,9.95-5.47c7.24-21.64,15.03-43.1,22.61-64.62C265.54,491.49,269.77,479.42,274.01,467.35z M319.59,389.46
		c-36.21,54.66-53.11,116.99-74.01,177.9c9.12-5.8,18.11-11.46,25.67-18.64c5-4.75,9.73-11.18,11.53-17.7
		c10.5-38.16,20.11-76.56,30-114.89C315.08,407.25,317.33,398.36,319.59,389.46z M770.9,536.28c20.07-12.46,39.27-26.32,45.04-50.04
		c10.2-41.92-0.61-80.08-26.56-114.11c-7.07-9.27-15.71-16.73-27.76-22.57C810.93,410.59,809.03,472.1,770.9,536.28z M555.73,419.11
		c-0.63,0.59-1.26,1.18-1.89,1.77c-12.5-6.09-22.6-13.7-24.27-29.32c-1.02-9.53-4.36-18.82-6.71-28.21
		c-2.28-9.08-4.63-18.15-6.94-27.23c-1.05,0.03-2.1,0.06-3.15,0.09c1.06,20.36-18.4,37.61-6.66,59.91
		c2.79,5.29,1.99,12.47,2.83,18.78c0.6,0.33,1.2,0.67,1.8,1c1.36-2.53,2.71-5.06,3.07-5.72c6,7.68,10.93,14.95,16.88,21.26
		c3.47,3.68,8.83,5.49,12.89,8.7c9.41,7.45,18.55,15.25,27.64,22.76c6.59-11.08,6.49-12.13-1.92-21.72
		c-1.08-1.23-1.36-3.2-1.88-4.88c-3.22-10.51-6.4-21.03-9.74-32.06c-4.97,1.24-9.29,2.32-14.26,3.56
		C548.08,412.08,551.91,415.59,555.73,419.11z M429.88,483.33c4.87-14.7,8.55-27,13.09-38.98c1.96-5.17,0.27-7.31-3.8-9.79
		c-7.26-4.43-14.21-9.36-21.3-14.06c-23.32-15.47-46.65-30.93-69.98-46.39c-0.46,0.45-0.92,0.91-1.38,1.36
		C373.82,410.8,401.13,446.13,429.88,483.33z M449,442.83c-11.93,36.13-23.29,70.53-34.64,104.93c0.49,0.29,0.99,0.59,1.48,0.88
		c23.12-19.68,46.24-39.37,69.86-59.48C473.52,473.79,461.8,458.99,449,442.83z M93.56,325.93c-2.82,1.73-3.56,2-4.06,2.52
		c-23.44,24.33-46.96,48.58-70.13,73.17c-2.49,2.65-4,7.29-4.02,11.02c-0.07,19.37,0.25,38.76,0.92,58.12
		c0.33,9.62,1.7,19.21,2.59,28.81c7.46-16.87,17.61-33.02,6.41-51.68c-1.39-2.32,0.27-7.49,2-10.48
		c11.16-19.32,22.73-38.39,34.16-57.55C71.75,362.57,82.04,345.28,93.56,325.93z M518.21,319.16c11.26-0.67,23.01,0.68,33.31-2.56
		c10.29-3.23,19.19-10.98,28.56-16.97c1.19-0.76,2.24-2.93,2.13-4.34c-0.92-11.75-2.14-23.48-3.26-35.21
		c-0.61-0.02-1.22-0.04-1.83-0.05c-1.15,2.86-2.3,5.71-3.86,9.58c-5.88-5.14-11.17-9.76-17.18-15.01
		c-2.56,12.87-4.81,24.21-7.42,37.37c-4.17-7.46-7.3-13.08-9.85-17.63c-6.21,7.8-11.13,15.96-17.94,22
		C512.93,303.37,512.16,310,518.21,319.16z M625.71,418.05c0,11.72,1.77,22.38-0.53,32.07c-2.03,8.54,0.33,15.54,5.35,19.32
		c9.35,7.04,20.58,11.6,31.62,17.51c1.6-7.44,2.86-13.32,4.08-18.99c-7.27-3.77-15.95,1.79-23.96-5.69
		c9.52-0.47,16.66-0.82,24.51-1.21c-0.99-8.61-1.84-16.09-2.83-24.77c-9.52,2.14-18.14,4.07-26.76,6.01
		c-0.29-0.96-0.58-1.91-0.86-2.87c9.99-3.2,19.99-6.4,30.97-9.92c-1.25-7.06-2.55-14.41-4.01-22.64
		C649.95,410.84,637.69,414.48,625.71,418.05z M93.91,640.85c-10.51-22.84-20.41-44.37-31.17-67.76
		c-11.03,26.65-21.14,51.06-31.86,76.95C52.55,646.88,72.44,643.98,93.91,640.85z M481.98,502.48c-0.55-0.48-1.1-0.97-1.65-1.45
		c-22.04,18.8-44.08,37.6-67.05,57.2c13.83,8.63,26.57,16.58,40.16,25.05C463.29,555.38,472.63,528.93,481.98,502.48z M463.42,596.3
		c-0.71,0.39-1.43,0.78-2.14,1.18c14.78,26.91,26.01,54.57,17.54,86.37c1.1,0.18,2.21,0.36,3.31,0.54
		c13.88-15.61,27.75-31.22,42.31-47.59C503.54,622.92,483.48,609.61,463.42,596.3z M108.08,301.61c-4.51-1.55-7.67-2.25-10.46-3.67
		c-8.22-4.18-13.48-1.47-19.11,5.49c-13.99,17.32-29.88,33.17-43.06,51.05c-7.56,10.26-11.32,23.31-16.79,35.11
		c0.83,0.36,1.66,0.72,2.49,1.08c5.8-5.69,11.73-11.26,17.39-17.09C61.38,350.03,84.14,326.4,108.08,301.61z M336.16,556.16
		c-11.13,11.92-13.08,15.28-13.82,26.23c-1.38,20.48-2.47,40.97-3.61,61.46c-0.12,2.12,0.28,4.27,0.5,7.3
		c9.43-5.75,18.06-10.66,26.23-16.26c2.02-1.39,3.88-5.25,3.49-7.59C345.05,604.03,340.67,580.83,336.16,556.16z M612.15,327.35
		c17.9-3.15,18.22-3.31,17.42-20.21c-0.16-3.48-1.66-7.34-3.7-10.22c-5.41-7.64-10.99-15.27-17.36-22.1
		c-7.65-8.19-16.2-15.55-26.28-25.09c1.28,14.56,2.66,26.12,3.19,37.73c0.32,7.12,2.29,12.43,9.2,15.42
		c7.74,3.34,12.68,9.09,14.46,17.54C609.6,322.88,611.14,325.13,612.15,327.35z M665.95,509.9c-3.34,8.16-0.55,12.6,4.95,16.96
		c19.26,15.3,40.82,22.48,65.42,20.13c23.25-2.22,48.1-27.93,49.99-52.67c-13.62,20.89-30.77,35.43-55.6,38.49
		C705.66,535.9,685.23,525.32,665.95,509.9z M366.99,665.68c-5.07-9.58-9.83-18.55-15.03-28.39c-11.47,7.22-25.16,11.89-32.34,21.46
		c-7.22,9.61-7.96,24.09-12.2,38.73C328.85,686.04,347.66,676,366.99,665.68z M389.41,243.64c17.14,10.77,32.49,20.41,48.53,30.49
		c6.07-17.66,11.62-33.79,17.78-51.71C433.09,229.66,412.35,236.3,389.41,243.64z M62.43,534.76
		c-0.16,37.09,21.12,66.23,34.86,100.95c4.03-10.2,7.28-17.43,9.64-24.94c0.84-2.68,0.54-6.66-0.94-8.98
		C91.68,579.32,77,557.07,62.43,534.76z M490.23,480.76c5.37-10.56,9.98-19.6,14.7-28.88c2.14,2.31,3.93,4.25,5.9,6.37
		c9.32-19.55,9.6-23.8,2.42-34.32c-2.45,2.63-4.88,5.24-8.29,8.91c-0.98-8.54-1.48-15.49-2.72-22.31c-0.47-2.56-2.66-4.82-4.06-7.21
		c-1.55,2.06-3.8,3.91-4.51,6.23c-2.99,9.78-4.56,20.09-8.42,29.47C479.25,453.55,483.91,466.18,490.23,480.76z M546.34,690.91
		c-7.72-15.38-15.22-30.31-22.71-45.22c-12.27,14.09-25.38,29.15-39.38,45.22C506.02,690.91,526.05,690.91,546.34,690.91z
		 M99.44,681.62c-3.65-11.9-7.01-22.82-10.68-34.79c-16.19,2.43-34.51,5.18-55.43,8.31c10.94,7.53,20.58,13,28.8,20.12
		C73.78,685.37,86.64,681.37,99.44,681.62z M523.69,335.55c-0.78,0.21-1.56,0.43-2.34,0.64c5.25,21.99,10.49,43.99,15.91,66.68
		c7.96-1.41,14.77-2.61,23.58-4.17c-2.31-10-2.18-20.63-7.03-27.98C545.38,357.93,533.89,347.16,523.69,335.55z M204.1,696.19
		c-6.98-12.72-13.1-23.87-19.54-35.61c-16.45,11.87-32.07,23.14-49.35,35.61C159.17,696.19,180.68,696.19,204.1,696.19z
		 M280.57,277.52c-33.88,10.62-68.49,18.55-101.56,31.78c26.98-2,53.61-5.29,80.22-8.84c17.89-2.39,17.87-2.55,22.01-20.12
		C281.34,279.88,281.01,279.33,280.57,277.52z M369.15,670.59c-17.36,9.35-34.09,18.36-50.83,27.38c0.19,0.42,0.38,0.84,0.58,1.25
		c21.62,0,43.25,0,65.92,0C379.5,689.51,374.74,680.81,369.15,670.59z M50.67,411.86c-0.55-0.21-1.1-0.42-1.66-0.63
		c-5.9,9.72-12.06,19.29-17.52,29.25c-1.29,2.34-1.11,6.27-0.14,8.94c5.06,14.03,10.55,27.9,15.98,41.8
		c0.6,1.54,1.72,2.88,3.34,5.53C50.67,467.28,50.67,439.57,50.67,411.86z M283.64,549.84c0.59,0.38,1.18,0.75,1.77,1.13
		c4.94-4.49,9.61-9.35,14.9-13.38c5.67-4.33,7.85-9.45,7.63-16.59c-0.43-14.37-0.08-28.76-0.06-43.15c0.01-4.45,0-8.9,0-13.36
		c-0.78-0.05-1.55-0.09-2.33-0.14C298.25,492.84,290.95,521.34,283.64,549.84z M511.53,286.15c5.98-15.94,5.73-15.58-6.68-24.09
		c-6.32-4.33-11.63-5.21-18.41-1.26c-5.5,3.21-11.8,5.04-17.64,7.7c-2.06,0.94-5.13,2.24-5.52,3.9c-3.16,13.5-5.8,27.12-8.6,40.71
		c4.34-4.46,6.71-9.42,9.08-14.38c2.51-5.27,4.87-10.62,7.6-15.77c1.17-2.21,2.78-5.12,4.81-5.77c7.18-2.31,14.77-5.48,21.91-4.88
		c3.95,0.33,7.3,7.55,10.95,11.64C509.6,284.58,510.31,285.08,511.53,286.15z M478.34,471.01c0.66-0.33,1.33-0.66,1.99-1
		c-9.27-28.12-18.54-56.23-27.8-84.35c-1.63,16.41-1.66,32.44-1.57,48.46c0.01,1.38,0.49,3.02,1.33,4.08
		C460.91,449.2,469.64,460.09,478.34,471.01z M353.11,521.84c-0.45-0.55-0.9-1.09-1.36-1.64c-11.67,4.19-23.37,8.27-34.95,12.7
		c-1.49,0.57-3.23,2.91-3.26,4.47c-0.27,11.77-0.15,23.54-0.15,35.31c0.63,0.19,1.26,0.38,1.89,0.57
		C327.9,556.12,340.51,538.98,353.11,521.84z M652.56,378.53c-19.23,4.39-22.88,20.07-30.16,35.68
		c14.29-4.17,26.65-7.78,40.12-11.71C658.83,393.63,655.65,385.98,652.56,378.53z M391.03,598.8c-0.51-0.29-1.01-0.57-1.52-0.86
		c-10.24,11.08-20.54,22.09-30.62,33.32c-1.07,1.19-1.64,4.01-0.98,5.35c3.48,7.07,7.43,13.91,12.21,22.65
		C377.62,637.58,384.33,618.19,391.03,598.8z M626.52,622.11c0.72,0.09,1.44,0.18,2.16,0.28c3.5-9.43,7.04-18.85,10.46-28.31
		c0.34-0.96,0.39-2.58-0.18-3.22c-7.76-8.72-15.66-17.32-23.52-25.95c-0.72,0.45-1.44,0.91-2.17,1.36
		C617.69,584.89,622.1,603.5,626.52,622.11z M614.69,535.48c-2.43,19.1,7.44,36.86,28.44,49.74c-0.75-8.2,0.95-16.77-2.5-21.78
		C633.62,553.27,623.82,545.02,614.69,535.48z M562.26,628.47c9.08,5.99,16.31,10.76,24.26,16.01c2.15-8.19,3.87-14.72,5.79-22.02
		c-5.4,0.3-9.59,0.54-15.15,0.86c2.57-3.48,4.35-5.88,6.68-9.02c-3.07-2.23-5.83-4.24-10.2-7.42
		C573.71,617,574.72,625.76,562.26,628.47z M613.71,587.29c-4.53,10.62-8.38,19.66-12.55,29.45c6.85,3.98,13.74,7.98,22.79,13.23
		C620.22,614.43,617.12,601.54,613.71,587.29z M635.05,477.65c-0.72,0.67-1.44,1.34-2.15,2.02c7.49,11.05,14.98,22.11,22.47,33.16
		c3.25-6.28,4.83-11.37,5.25-16.56c0.18-2.21-1.47-5.62-3.33-6.74C650.1,485.19,642.49,481.55,635.05,477.65z M425.45,573.77
		c13.33,16,25.93,31.13,39.62,47.55C459.91,597.8,448.65,581.52,425.45,573.77z M591.66,644.62c10.23-3.59,18.99-6.66,29.57-10.37
		c-8.77-5.07-15.6-9.02-23.09-13.35C595.93,629,594.1,635.69,591.66,644.62z"/>
	<path d="M595.51,326.71c-9.51,3.9-15.68-1.49-22.22-7.37C588.48,312.58,592.02,313.8,595.51,326.71z"/>
</g>
</svg>
