<?xml version="1.0" encoding="utf-8"?>
<!-- Generator: Adobe Illustrator 23.0.4, SVG Export Plug-In . SVG Version: 6.00 Build 0)  -->
<svg version="1.1" id="Layer_1" xmlns="http://www.w3.org/2000/svg" xmlns:xlink="http://www.w3.org/1999/xlink" x="0px" y="0px"
	 viewBox="0 0 864 864" style="enable-background:new 0 0 864 864;" xml:space="preserve">
<g>
	<path d="M834.15,390.64c-7.86-2.15-14.86-4.06-23.31-6.37c1.71,8.33,3.92,15.64,4.54,23.08c0.53,6.38,0.7,13.46-1.49,19.29
		c-7.08,18.79-15.8,36.96-22.87,55.75c-2.73,7.24-3.98,15.54-3.76,23.3c0.56,19.74,1.28,39.59,4.07,59.09
		c1.35,9.47,6.52,18.85,11.7,27.19c6.3,10.14,8.77,20.36,8.58,32.24c-0.56,34.57-0.84,69.18,0.02,103.74
		c0.59,23.73-7.49,45.39-13.22,67.66c-0.56,2.17-3.94,5.11-6.06,5.15c-17.1,0.33-34.21,0.07-51.32-0.12
		c-0.78-0.01-1.55-1.16-2.85-2.19c7.51-12.4,12.07-26.77,27.43-33.11c3.5-1.45,6.79-6.51,7.74-10.49
		c3.36-13.99,7.21-28.15,7.92-42.39c0.68-13.84-1.99-27.9-3.72-41.8c-1.32-10.62-4.34-21.09-5.07-31.72
		c-1.19-17.3-8.02-32.08-16.8-46.62c-16.59-27.49-32.47-55.42-50.3-86c-4.16,19.07-6.67,35.46-11.46,51.16
		c-5.4,17.7,1.86,32.79,6.56,48.71c1.44,4.9,2.38,10.57,1.42,15.46c-9.92,50.22-20.17,100.37-30.62,150.48
		c-1.7,8.14-4.57,16.07-7.43,23.9c-0.74,2.03-3.44,4.71-5.28,4.75c-18.37,0.35-36.75,0.21-55.06,0.21
		c-0.44-16.45,7.75-29.98,21.14-35.62c6.29-2.65,11.61-5.05,13.26-13.2c4.12-20.25,10.44-40.09,13.89-60.43
		c3.57-21.09,5.46-42.54,6.74-63.91c0.56-9.39-0.8-19.44-3.72-28.4c-12.85-39.4-26.59-78.51-40.45-119.02
		c-5.05,2.22-9.73,3.75-13.89,6.18c-21.61,12.58-46.1,13.13-69.79,16.92c-19.09,3.06-38.24,5.67-58.06,8.59
		c4.28,27.45,9.3,53.77,12.18,80.32c1.68,15.51-1.2,31.48,0.02,47.09c2.11,27.01,5.09,54,9.07,80.8
		c3.75,25.28,5.09,49.95-6.88,73.53c-1.36,2.68-3.81,6.76-5.87,6.83c-16.94,0.55-33.9,0.31-51.89,0.31
		c3.57-16.94,9.85-30.14,22.31-39.78c5.93-4.59,6.55-10.18,6.79-17.49c1.49-46.42-17.79-88.33-27.67-132.25
		c-2.39-10.63-4.73-21.26-7.09-31.89c-0.99-0.23-1.98-0.47-2.98-0.7c-4.45,11.7-9.53,23.22-13.24,35.15
		c-10.84,34.83-21.57,69.71-31.43,104.83c-3.4,12.12-3.51,25.14-6.2,37.51c-2.89,13.29-6.82,26.38-10.86,39.38
		c-0.68,2.2-4.13,4.98-6.36,5.04c-17.72,0.41-35.44,0.23-56.86,0.23c4.48-10.39,5.85-21.17,11.96-26.31
		c16.35-13.76,23.72-32.12,31.02-50.76c19.39-49.53,29.86-101.48,39.47-153.49c2.2-11.92-2.05-25.15-3.93-37.69
		c-2.18-14.57-4.77-29.1-7.63-43.55c-1.41-7.14-3.4-14.23-5.86-21.09c-7.13-19.89-21.06-31.66-41.61-37.8
		c-38.88-11.62-70.19-37.25-103.36-59.22c-6.62-4.38-11.33-4.81-17.76-0.14c-9.45,6.87-19.58,12.8-30.38,19.74
		c-10.29-12.36-19.27-25.5-30.63-36.08c-9.55-8.89-21.81-14.9-33.06-21.88c-1.02-0.63-4.31,0.41-5.03,1.59
		c-8.48,13.97-24.34,11.73-36.85,18.39c-2.22-5-3.96-8.91-5.77-13c-14.55-3.58-23.19-15.68-21.64-30.7c0.07-0.66-0.1-1.59,0.28-1.95
		c14.86-14.27,22.8-34.9,44.62-43.06c18.48-6.91,36.25-4.28,54.35-2.24c9.07,1.02,16.97,0.16,25.09-4.1
		c6.01-3.15,12.9-4.61,20.27-8.84c-13.45-2.45-26.96-4.58-40.31-7.45c-9.04-1.94-18.29-3.95-26.69-7.66
		c-14.06-6.22-27.32-14.19-41.27-20.7c-8.6-4.01-14.81-9.71-19.4-17.96c-4.89-8.78-10.84-16.96-15.94-25.62
		c-7.43-12.64-5.19-26.67-6.78-40.14c0.93-0.39,1.87-0.78,2.8-1.16c3.99,5.48,7.72,11.17,12.02,16.39
		c11.86,14.44,23.6,29,36.23,42.74c2.62,2.85,8.86,2.37,16.71,4.19c-3.13-17.43-5.72-31.89-8.32-46.36
		c11.32,9.73,23.41,18.7,27.2,33.87c3.04,12.16,8.64,21.26,19.91,28.31c10.61,6.64,20.17,9.94,32.65,7.3
		c12.87-2.72,20.43-13.97,16.03-26.88c-1.62-4.75-2.86-9.79-5.36-14.07c-10.24-17.52-6.09-35.51-2.44-53.54
		c0.18-0.91,1.03-1.68,3.02-4.78c4.07,11,7.38,19.81,10.59,28.66c3.52,9.73,6.11,19.91,10.76,29.07c2.12,4.18,7.86,7.33,12.63,8.96
		c1.98,0.67,6.12-3.49,8.62-6.09c8.41-8.76,11.34-19.2,9.64-31.35c-0.86-6.16-0.15-12.54-0.15-18.83c1.22-0.45,2.43-0.9,3.65-1.36
		c5.14,8.44,10.27,16.88,15.67,25.75c9.14-1.98,15.31-6.53,20-15.63c10.87-21.04,7.42-43.24,7.23-65.13
		c-0.04-5.38-4.24-10.73-5.41-16.98c8.72,4.3,18.65,7.15,20.08,18.87c1.74,14.26,4.06,28.56,4.12,42.86
		c0.04,9.6,2.62,14.47,11.12,14.93c20.78-21.47,16.55-48.43,16.6-76.08c3,2.12,4.77,2.69,5.25,3.8
		c8.68,20.33,14.38,40.23,11.91,63.73c-3.5,33.31-21.19,54.58-46.96,71.48c-24.88,16.32-50.43,31.62-75.52,47.63
		c-2.58,1.64-4.01,5.08-5.97,7.68c3.27,0.72,6.56,2.14,9.79,2.02c9.21-0.34,17.44-2.29,23.21-11.19c1.98-3.06,8.3-3.4,12.7-4.76
		c6.07-1.88,12.55-2.82,18.24-5.47c10.7-4.99,19.16-1.09,28.02,4.99c-1.44,3.65-2.75,6.97-4.45,11.25
		c29.85,7.61,58.27,19.84,89.55,9.92c20.46-6.48,40.06-2.75,60.71,2.59c41.05,10.63,82.78,19.02,124.63,25.93
		c16.13,2.66,33.37-0.94,50.07-2.17c20.73-1.52,41.44-4.89,62.14-4.81c12.23,0.05,24.81,4.17,36.58,8.31
		c21.74,7.64,43.21,16.19,64.34,25.38c6.04,2.63,10.66,8.66,15.74,13.35c2.92,2.7,5.07,6.34,8.2,8.71
		C832.32,346.22,833.65,367.58,834.15,390.64z M721.45,348.21c-7.04-20.18-14.07-38.95-20.03-58.05
		c-2.67-8.54-6.56-11.33-15.66-10.37c-24.96,2.64-50.04,5.69-75.08,5.8c-28.05,0.12-50.56,12.58-74.83,27.34
		c31.46,18.76,61.8,36.89,92.21,54.88c1.56,0.92,3.93,1.32,5.68,0.92C662.67,362.07,691.55,355.24,721.45,348.21z M414.22,310.09
		c0.63,2.03,0.86,3.31,1.41,4.44c12.15,25.01,24.17,50.09,36.71,74.9c1.76,3.49,5.7,6.53,9.34,8.3
		c23.5,11.41,47.19,22.42,70.83,33.53c6.18,2.91,12.42,5.69,20.19,9.24c-7.86-41.98-15.27-82.06-23.14-122.04
		c-0.38-1.91-4.8-4.15-7.46-4.31c-26.45-1.59-52.91-2.89-79.38-4.01C433.48,309.76,424.2,310.09,414.22,310.09z M448.89,395.11
		c-13.43-27.94-26.03-54.5-39.15-80.79c-1.02-2.05-5.96-3.65-8.62-3.12c-13.75,2.73-27.37,6.14-41,9.47
		c-13.12,3.21-26.18,6.63-40.24,10.2c10.19,35.78,19.96,70.07,29.96,105.2C383.09,422.32,415.41,408.95,448.89,395.11z
		 M782.28,487.23c1.5-1.98,2.51-2.88,2.99-4c8.67-20.66,19.46-40.78,25.01-62.25c2.94-11.4-3.17-25.16-5.41-37.82
		c-0.16-0.92-1.95-1.82-3.16-2.26c-24.7-9.07-49.42-18.08-75.26-27.51c-3.97,15.24-7.23,29.54-11.5,43.52
		c-3.41,11.18-1.5,19.7,7.99,27.08c5.48,4.26,9.7,10.14,14.5,15.28C752.25,455.11,767.06,470.95,782.28,487.23z M236.34,315.62
		c-1.66-10.06-3.23-19.62-4.8-29.17c-2.92-17.73-3.03-18.18-20.6-13.95c-32.05,7.72-63.97,15.98-95.91,24.16
		c-7,1.79-15.2,25.77-10.91,31.29c0.58,0.75,1.5,1.35,2.38,1.73c11.29,4.94,22.25,11.04,33.99,14.44
		c19.5,5.64,39.48,9.64,59.32,14.03c2.47,0.55,6.58,0.25,7.84-1.32c9.42-11.74,18.37-23.85,27.29-35.98
		C236.01,319.39,235.97,317.12,236.34,315.62z M412.61,484.73c13.76,5.5,26.98,9.54,38.97,15.9c12.91,6.85,22.84,5.12,32.88-4.85
		c5.18-5.15,11.77-8.86,17.66-13.3c16-12.06,31.97-24.16,49.13-37.12c-33.13-15.54-64.85-30.41-97.84-45.87
		C439.7,428.11,426.47,455.76,412.61,484.73z M633.84,375.64c7.14,26.09,13.75,50.61,20.69,75.02c0.74,2.6,2.98,5.56,5.33,6.77
		c9.41,4.84,19.15,9.05,29.64,13.9c10.65-39.53,21-77.93,31.79-117.98C691.03,361.06,662.96,368.22,633.84,375.64z M412.05,303.59
		c2.76,0.55,4.35,1.08,5.95,1.15c31.44,1.47,62.99,1.77,94.29,4.67c23.07,2.14,38.38-12.1,57.33-20.75
		c-49.55-10.83-97.86-21.39-146.71-32.07C419.49,271.41,415.9,286.94,412.05,303.59z M622.02,481.86
		c14.01,43.41,27.02,83.73,40.95,126.91c9.03-14.07,19.19-24.84,23.33-37.56c5.82-17.9,7.09-37.27,10.48-55.98
		c1.17-6.42-1.15-9.53-7.43-11.49c-16.89-5.3-33.56-11.31-50.35-16.94C634.49,485.28,629.84,484.12,622.02,481.86z M623.79,372.37
		c-29.37-18.2-58.46-36.24-89.41-55.42c7.93,42.06,15.41,81.7,23.24,123.21C580.33,416.9,601.33,395.39,623.79,372.37z
		 M803.65,376.56c-4.01-18.71-8.43-35.17-10.79-51.92c-1.34-9.47-6.63-12.97-14.14-15.74c-22.24-8.21-44.46-16.51-66.71-24.71
		c-2.3-0.85-4.75-1.3-8.72-2.37c7.76,22.01,14.86,42.45,22.31,62.77c0.77,2.1,3.34,4.18,5.56,5.02
		C754.56,358.47,778.05,367.09,803.65,376.56z M711.1,503.8c20.09,35.59,39.24,69.54,59.71,105.82
		c5.84-14.05,14.37-25.52,14.72-37.25c0.77-25.48-2.62-51.1-4.32-76.8C757.85,498.31,735.35,500.95,711.1,503.8z M269.45,325.44
		c5.09,28.1,9.79,54.4,14.71,80.66c0.38,2.04,1.79,4.83,3.47,5.55c17.89,7.67,35.92,14.99,54.21,22.53
		c0.45-2.34,0.82-3.05,0.66-3.61c-8.7-31.57-17.37-63.15-26.31-94.65c-0.61-2.14-3.03-5.05-4.95-5.34
		C298.05,328.61,284.77,327.25,269.45,325.44z M627.85,379.53c-22.95,22.03-44.77,42.98-67.08,64.4
		c13.11,6.59,25.53,12.28,37.4,18.95c11.36,6.38,21.32,9.07,34.13,1.47c16.08-9.55,16.95-8.31,12.06-26.14
		C639.11,419,633.6,399.88,627.85,379.53z M410.24,501.37c-7.21-13.56-0.29-23.62,4.91-34.01c6.44-12.86,13.1-25.62,19.41-38.55
		c3.98-8.15,7.51-16.53,11.24-24.8c-0.69-0.6-1.37-1.19-2.06-1.79c-30.35,12.75-60.69,25.5-90.99,38.23
		C361.5,465.08,382.6,487.63,410.24,501.37z M268.59,320.25c11.11,1.37,19.62,1.43,27.53,3.63c13.98,3.88,22.7,0.32,29.5-13.18
		c8.17-16.21,18.74-31.21,28.74-47.49c-17.94-4.68-34.32-9.13-50.84-13.06c-2.24-0.53-6.74,0.86-7.44,2.53
		C286.81,274.66,278.02,296.86,268.59,320.25z M322.01,325.1c28.87-7.09,55.36-13.56,81.81-20.19c1.3-0.32,2.93-1.88,3.25-3.15
		c3.81-15.34,7.4-30.74,11.46-47.86c-19.82,3.42-37.24,6.31-54.6,9.55c-2.28,0.43-4.98,2.16-6.21,4.1
		C346.13,285.87,334.81,304.37,322.01,325.1z M429.59,572.42c-0.91,0.63-1.82,1.26-2.73,1.89c9.98,38.06,19.95,76.12,30.45,116.16
		c19.57-30.69,21.3-36.25,22.6-68.95c0.2-5.02,1.32-10.06,1-15.03c-0.18-2.85-1.65-6.88-3.83-8.13
		C461.43,589.4,445.46,581,429.59,572.42z M806.9,733.45c0-37-1.03-72.86,0.43-108.62c0.75-18.39-9.64-30.37-17.26-45.05
		c-12.45,20.44-20.08,40.48-12.03,63.62c1.94,5.58,1.83,11.87,2.7,17.83C784.43,686.67,786.24,712.76,806.9,733.45z M708.84,424.14
		c-3.87,14.9-8.94,31.48-12.3,48.4c-2.28,11.5,10.32,24.56,21.74,23.53c19.42-1.74,38.78-4.17,60-6.51
		C754.3,466.97,731.6,445.59,708.84,424.14z M608.03,475.58c-18.37-9.86-33.8-18.37-49.55-26.27c-1.74-0.87-5.61,1.19-7.82,2.81
		c-11.38,8.3-22.56,16.87-33.78,25.4c-11.06,8.41-22.07,16.88-33.1,25.33c0.39,0.91,0.78,1.81,1.17,2.72
		C524.96,496.01,567.62,497.78,608.03,475.58z M408.31,591.21c10.16-12.04,15.67-24.91,10.41-41.24c-3.06-9.49-3.85-19.7-5.87-29.54
		c-0.73-3.56-0.96-8.32-3.3-10.28c-11.88-9.99-24.38-19.24-36.66-28.75c1.02,19.24,5.19,36.91,6.68,54.81
		C381.48,558.98,391.54,576.61,408.31,591.21z M210.46,361.97c22.89,15.09,44.69,29.46,67.26,44.34c0.23-2.7,0.54-3.73,0.37-4.67
		c-4.13-23.7-8.2-47.42-12.65-71.06c-0.45-2.38-3.35-6.23-4.9-6.13c-7.53,0.49-15.91-7.07-22.52,1.16
		C228.82,337.07,220.23,349.02,210.46,361.97z M681.46,691.55c0.6-0.06,1.2-0.12,1.8-0.18c3.75-18.35,6.23-37.07,11.58-54.93
		c5.79-19.34-0.26-35.78-7.67-53.91c-7.15,10-13.72,18.86-19.85,28.02c-1.32,1.98-1.88,5.19-1.39,7.56
		C670.94,642.62,676.24,667.08,681.46,691.55z M480.32,593.81c-4.3-26.74-8.18-50.9-12.47-77.57
		c-13.93,17.41-26.3,32.87-39.54,49.42C446,575.24,462,583.9,480.32,593.81z M412.55,490.91c4.39,23.13,8.55,45.04,13.14,69.25
		c14.18-17.49,26.53-32.73,39.54-48.78c-15.32-6.15-29.54-11.9-43.78-17.57C419.05,492.86,416.54,492.2,412.55,490.91z
		 M76.34,271.64c10.02,6.86,19.55,13.46,29.18,19.9c1.28,0.86,3.25,1.51,4.68,1.2c16.84-3.57,33.63-7.33,50.45-11.05
		C156.24,264.31,104.01,258.19,76.34,271.64z M664.22,631.09c-5.82,39.32-11.58,78.22-17.02,114.96
		c8.46-10.67,18.72-23.47,28.77-36.43c1.31-1.69,2.58-4.35,2.22-6.26C673.7,679.17,668.9,655.03,664.22,631.09z M233.97,272.12
		c2,12.33,3.56,22.79,5.41,33.2c1.81,10.17,13.05,16.86,23.14,13.73c1.52-0.47,3.12-2.35,3.69-3.94
		c4.84-13.39,9.45-26.87,14.28-40.74C265.1,271.67,250.32,282.92,233.97,272.12z M223.05,185.74c14.46,4.61,28.83,9.2,45.85,14.63
		c-1.03-18.17-1.89-33.53-2.78-49.28C246.14,156.89,230.82,165.93,223.05,185.74z M371.3,711.49c0.78-0.09,1.57-0.17,2.35-0.26
		c9.55-32.07,19.1-64.14,28.65-96.21c-0.88-0.36-1.75-0.72-2.63-1.08c-10.82,14.39-21.72,28.72-32.37,43.23
		c-1.23,1.68-1.73,4.42-1.51,6.55C367.48,679.66,369.43,695.57,371.3,711.49z M247.65,271.67c33.53-0.62,44.31-8.4,48.53-34.97
		c-13.11,1.13-26.07,2.03-38.95,3.55c-2.29,0.27-5.78,2.81-6.15,4.78C249.42,253.78,248.71,262.7,247.65,271.67z M627.29,472.62
		c0.13,1.11,0.26,2.22,0.39,3.33c11.97,4.07,23.95,8.15,35.92,12.22c11.94,4.05,23.89,8.09,36.54,12.38
		c-5.95-25.01-26.39-30.82-44.5-36.53C647.87,461.56,636.84,469.44,627.29,472.62z M489.54,748.28c1.02-0.19,2.04-0.38,3.06-0.57
		c-4.1-28.17-8.2-56.33-12.73-87.38c-6.8,12.98-12.3,22.9-17.12,33.15c-1.16,2.46-1.09,6.58,0.21,8.94
		C471.55,717.85,480.63,733.02,489.54,748.28z M211.62,238.56c18.61-11.23,34.87-21.04,51.14-30.86c-0.2-1.25-0.4-2.5-0.6-3.75
		c-13.85-4.44-27.7-8.89-42.52-13.64C217,206.17,214.62,220.5,211.62,238.56z M368.9,735.61c-1.26-0.53-2.52-1.06-3.78-1.59
		c-12.63,9.59-25.27,19.18-38.43,29.17c9.47,10.33,18.2,19.86,26.93,29.38c1.2-0.03,2.39-0.06,3.59-0.09
		C361.11,773.52,365.01,754.56,368.9,735.61z M275.18,148.16c11.92,9.34,22.82,17.89,34.57,27.1c7.34-9.38,14.24-18.2,22.4-28.61
		c-9.12-3.65-17.2-9.76-24.79-9.21C296.9,138.21,286.81,144.01,275.18,148.16z M660.66,793.19c6.22-26.56,11.79-50.31,17.36-74.06
		c-0.78-0.34-1.57-0.67-2.35-1.01c-10.95,13.73-22.02,27.38-32.69,41.32c-1.13,1.47-0.76,5.24,0.35,7.08
		C648.27,774.75,653.73,782.65,660.66,793.19z M405.55,597.5c-7.13-8.55-13.81-16.56-21.82-26.17
		c-5.54,26.04-10.59,49.76-16.29,76.53C381.27,629.58,393.27,613.73,405.55,597.5z M67.35,310c8.41,1.98,16.37,4.19,24.46,5.59
		c3,0.52,8.9-0.39,9.09-1.45c1.12-6.14,3.68-15.26,0.66-18.28c-8.21-8.23-18.98-13.91-29.69-21.25
		C70.24,287.38,68.86,298.21,67.35,310z M333.07,752.2c10.81-8.22,20.96-15.74,30.8-23.63c1.76-1.41,3.37-4.49,3.17-6.62
		c-1.43-15.1-3.34-30.15-5.11-45.22c-0.51-0.01-1.02-0.03-1.53-0.04C351.42,701.51,342.44,726.31,333.07,752.2z M491.8,765.34
		c-27.79-9.95-33.58-8.66-46.01,10.44c11.72,6.26,23.37,12.48,35.79,19.12C485.08,784.77,488.33,775.38,491.8,765.34z M206.74,238.1
		c2.63-15.7,4.56-28.76,7.1-41.69c1.39-7.08-2.26-9.64-8.02-11.04c-1.28-0.31-2.68-0.59-3.95-0.4c-8.57,1.25-21.18,24.56-16.2,30.74
		C191.62,223.09,198.65,229.61,206.74,238.1z M656.42,795.69c-7.47-11.3-13.68-20.7-19.8-29.97c-22.16,8.21-25.77,12.25-27.05,29.97
		C624.46,795.69,639.33,795.69,656.42,795.69z M827.65,383.29c5.96-28.81-14.46-43.67-31.81-63.41c3.75,16.34,8.02,29.77,9.67,43.51
		C807.2,377.5,814.85,382.61,827.65,383.29z M233.11,252.66c-26.9,6.31-54-2.42-78.58,12.84
		C174.19,278.36,224.71,271.13,233.11,252.66z M61.86,343.7c0.98,0.75,1.96,1.5,2.95,2.26c11.59-4.42,26.2-3.05,32.55-17.42
		c0.9-2.04-0.29-6.97-1.96-7.87c-16.64-8.96-35.54-6.05-49.76,7.13c3.83,7.09,8.5,5.22,13.78,1.66c4.46-3,9.3-5.42,13.98-8.09
		c0.38,0.46,0.76,0.92,1.14,1.38C70.31,329.73,66.08,336.71,61.86,343.7z M200.37,363.64c-20.87-4.96-39.48-9.38-60.97-14.49
		c10.88,13.19,19.89,24.11,29.15,35.34C179.25,377.48,188.9,371.15,200.37,363.64z M304.46,795.5c14.47,0,28.86,0,45.04,0
		c-9.49-10.44-17.74-19.52-26.08-28.71C312.8,774.11,304.17,781.56,304.46,795.5z M773.66,767.58c-15.86,6.64-22.59,13.85-26.3,28.1
		c13.96,0,27.8,0,43.4,0C784.53,785.43,779.07,776.47,773.66,767.58z M105.02,224.66c-14.61-23.81-37.13-38.23-61-51.33
		c6.56,10.69,12.13,22.96,21.52,30.39C77.03,212.82,91.72,217.86,105.02,224.66z M305.93,178.64c-11.98-9.15-22.53-17.2-35.01-26.73
		c1.64,17.19,2.99,31.38,4.49,47.2C285.83,192.12,295.13,185.88,305.93,178.64z M123.02,206.12c0.98,8.58,1.38,15.93,2.85,23.06
		c0.51,2.49,3.37,5.92,5.65,6.36c9.39,1.79,18.97,2.6,29.08,3.85C152.37,223.33,141.99,214.06,123.02,206.12z M65.34,278.51
		c-6.96,7.87-12.19,15.49-19.06,21.11c-8.54,6.98-8.33,14.29-4.48,22.92C66.39,317.69,65.84,298.87,65.34,278.51z M786.45,712.12
		c-3.1,16.64-5.7,30.63-8.63,46.35c10.51-5.15,19.34-9.48,28.61-14.03C800.02,734.07,794.08,724.45,786.45,712.12z M182.13,218.37
		c-3.78,9.21-6.78,16.5-10.53,25.65c13.04,3.05,24.26,5.66,35.48,8.28c0.74-1.35,1.48-2.71,2.22-4.06
		C200.77,238.87,192.25,229.5,182.13,218.37z M489.49,757.62c-8.73-14.72-17.09-28.83-25.46-42.94c-1.68,5.3-1.83,9.9-1.66,14.48
		c1.1,29.97-1.8,22.02,24.25,28.94C486.91,758.18,487.26,758.01,489.49,757.62z M778.03,764.5c5.68,9.29,10.67,17.46,16.58,27.12
		c4.18-14.95,7.74-27.64,11.31-40.42c-1.26-0.2-2.04-0.6-2.48-0.36C795.22,755.2,787.04,759.64,778.03,764.5z M118.69,228.5
		c0.85-0.28,1.7-0.57,2.55-0.85c-1.9-8.91-1.18-20.16-6.45-26.06c-4.96-5.56-16.24-5.49-24.73-7.9c-0.42,1.07-0.84,2.14-1.26,3.22
		C98.75,207.44,108.72,217.97,118.69,228.5z M435.22,795.85c12.93,0,23.94,0,37.84,0c-11.97-6.29-21.44-11.26-31.45-16.51
		C439.38,785.1,437.62,789.65,435.22,795.85z M332.67,124.89c0.89-0.14,1.78-0.28,2.66-0.41c2.02-17.19,7.24-34.71-7.26-52.95
		C329.76,91.09,331.21,107.99,332.67,124.89z M331.71,142.06c-2.01-11.59-3.71-21.37-5.89-33.91c-4.76,9.46-8.24,16.37-12.05,23.94
		C319.78,135.43,324.88,138.26,331.71,142.06z M301.3,133.75c-6.91-4.74-12.76-8.74-19.5-13.35c-2.4,6.28-4.61,12.09-7.86,20.6
		C284.71,138.14,292.67,136.03,301.3,133.75z M288.34,83.44c-1.73,0.34-3.47,0.68-5.2,1.03c3.56,10.88-3.95,23.77,5.74,33.54
		c1.36-0.21,2.72-0.43,4.07-0.64C291.41,106.06,289.87,94.75,288.34,83.44z M115.19,193.76c-1.94-5.98-3.56-10.99-5.2-16
		c-0.21-0.63-0.36-1.49-0.83-1.77c-1.78-1.06-3.82-2.85-5.49-2.6c-1.56,0.24-3.96,2.75-3.94,4.24
		C99.84,189.7,96.63,191.61,115.19,193.76z M179.6,133.24c-2.88,22.29-2.24,23.93,12.93,34.08
		C188.32,156.23,184.24,145.47,179.6,133.24z M177.03,217.76c-7.97,1.26-14.28,2.26-22.32,3.53c4.89,6.29,8.61,11.08,13.38,17.22
		C171.36,230.91,173.89,225.04,177.03,217.76z M35.91,145.08c-0.86,16.65,2.54,21.28,13.71,20.1
		C45.27,158.81,41.02,152.57,35.91,145.08z M183.86,167.4c-0.55,0.52-1.11,1.04-1.66,1.56c2.36,5.9,4.72,11.81,7.75,19.4
		c3.47-2.89,5.55-4.62,7.22-6C191.66,176.17,187.76,171.79,183.86,167.4z M242.85,271.08c0.58-6.87,1.03-12.21,1.48-17.55
		c-0.69-0.3-1.39-0.59-2.08-0.89c-2.64,3.91-5.27,7.81-8.35,12.36C236.78,266.96,239.07,268.52,242.85,271.08z M237.09,157.92
		c13.3-6.69,2.2-10.87,0-15.57C237.09,146.96,237.09,151.58,237.09,157.92z"/>
</g>
</svg>
