<?xml version="1.0" encoding="utf-8"?>
<!-- Generator: Adobe Illustrator 23.0.4, SVG Export Plug-In . SVG Version: 6.00 Build 0)  -->
<svg version="1.1" id="Layer_1" xmlns="http://www.w3.org/2000/svg" xmlns:xlink="http://www.w3.org/1999/xlink" x="0px" y="0px"
	 viewBox="0 0 864 864" style="enable-background:new 0 0 864 864;" xml:space="preserve">
<g>
	<path d="M518.1,558.68c-26.93,20.69-52.18,44.24-81.26,61.25c-28.55,16.7-60.99,26.77-94.38,40.86
		c12.26,19.58,21.94,38.66,35.34,54.59c5.04,6,18.65,5.84,28.49,6.54c20.06,1.43,44.73,17.59,50.5,35.36c-28.6,0-56.87,0-86.73,0
		c3.2,6.4,5.98,11.95,8.75,17.5c-0.64,1.58-1.28,3.16-1.93,4.74c-22.1-6.45-44.3-12.61-66.16-19.78c-2.34-0.77-3.35-7.32-3.98-11.34
		c-4.34-27.66-7.72-55.5-12.91-82.99c-2.15-11.38-0.72-19.28,7.64-27.79c16.86-17.14,32.4-35.58,51.11-56.41
		c-31.77,0-59.59-1.27-87.25,0.34c-30.96,1.8-60.65-1.38-89.5-12.93c-10.71-4.29-21.65-8.84-32.91-10.8
		c-33.72-5.88-54.52-26.32-68.18-56.26c-4.02-8.82-8.48-17.97-14.82-25.11c-28.77-32.39-17.41-65.34-1.35-97.55
		c14.12-28.31,30.43-55.53,45.96-83.12c4.39-7.79,9.44-15.21,14.19-22.8c1.73,0.49,3.46,0.99,5.19,1.48
		c-2.22,12.34-3.88,24.81-6.78,36.98c-8.75,36.67-18.65,73.08-26.45,109.94c-1.51,7.13,2.94,16.83,7.31,23.61
		c9.14,14.17,19.42,27.75,30.53,40.43c5.27,6.02,12.94,11.27,20.54,13.7c41.08,13.12,73.36-3.66,104.31-29.69
		c29.78-25.04,60.42-49.81,93.62-69.83c42.59-25.69,88.26-46.21,132.29-69.57c20.83-11.05,42-22.05,60.85-36.01
		c8.38-6.21,12.25-19.34,16.5-29.99c2.37-5.94,2.44-13.36,1.68-19.9c-4.93-42.13,14.64-74.89,39.3-105.99
		c14.79-18.65,63.67-35.31,86.02-26.8c28.27,10.76,55.59,12.4,85.52,5.33c35.4-8.36,55.25,26.16,55.31,55.57
		c0.03,12.93-14.12,13.15-21.49,19.29c-6.25,5.21-15.04,7.74-23.07,10.31c-4.92,1.58-10.53,1-18.03,1.55
		c-0.12-0.23-1.66-3.12-3.65-6.87c-3.4,4.25-6.37,7.98-10.25,12.83c-1.4-3.95-2.59-7.3-4.11-11.57c-3.75,2.63-7.01,4.92-5.82,4.09
		c-9.74-4.13-16.21-6.87-24.7-10.47c2.4,16.85,20.57,31.36,40.03,34.57c2.7,0.45,6.14-3.58,8.91-5.33
		c9.68,1.97,20.68,6.01,31.65,5.91c10.43-0.09,21.5-5.09,22.01,11.42c0.4,12.83-12.92,27.26-25.36,28.24
		c-30.35,2.39-60.76,4.2-91.05,7.15c-5.47,0.53-14.23,4.44-15.19,8.34c-8.26,33.42-15.94,67.05-21.82,100.97
		c-1.78,10.24,2.43,21.58,4.24,32.35c2.47,14.76,10.57,22.47,26.12,25.46c26.77,5.15,34.84,22.63,24.97,51.37
		c-5.72-5.13-10.69-10.35-16.42-14.54c-6.82-4.98-13.77-10.54-21.56-13.3c-28.35-10.03-28.49-9.63-44.84-30.84
		c-3.93,2.94-7.89,5.9-11.37,8.5c14.81,14.97,31.02,27.5,41.46,43.74c4.46,6.93-3.14,21.62-5.33,33.13
		c-16.6-17.54-31.83-33.65-47.07-49.76c-1.99,1.23-3.97,2.45-5.96,3.68c3.88,21.05,7.06,42.26,11.92,63.07
		c2.74,11.72-0.43,18.99-9.23,26.82c-21.84,19.43-42.3,40.42-64.03,59.98c-7.91,7.12-17.84,11.98-28.08,18.68
		c10.63,12.01,22.49,27.48,36.72,40.32c4.9,4.42,16.35,4.63,23.75,2.69c26.09-6.82,43.48,8.21,62.42,25.2
		c-28.1,4.8-56.21,9.61-86.12,14.72c4.46,6.22,8.07,11.24,15.08,21.01c-27.14-2.92-49.72-5.02-72.15-8.18
		c-2.66-0.37-5.34-6.22-6.61-9.99c-9.32-27.67-18.97-55.26-26.83-83.36c-1.78-6.38,0.89-16.47,5.29-21.64
		c11.4-13.39,25.34-24.59,37.39-37.48c6.24-6.67,10.63-15.07,15.86-22.69C520.81,560.66,519.46,559.67,518.1,558.68z M480.13,497.84
		c36.75-29.03,63.08-68.59,73.52-110.33c-22.93-14.8-46.22-29.82-74.13-47.83c-15.03,16.79-30.17,32.69-43.88,49.74
		c-3.43,4.27-5.1,13.6-2.81,18.24C447.62,437.63,463.73,466.95,480.13,497.84z M394.63,383.59c-3.63-0.37-4.31-0.65-4.83-0.46
		c-31.28,11.65-38.26,43.85-55.96,66.94c-1.23,1.6,1.52,8.32,4.18,10.51c33.73,27.71,67.78,55.02,105.69,85.62
		C426.39,488.8,410.5,436.17,394.63,383.59z M582.08,391.88c-17.07-1.34-18.11-1.76-22.98,10.26c-15.5,38.26-35.79,72.86-68.51,99.3
		c-4.68,3.78-6.27,11.39-9.3,17.22c1.38,1.18,2.76,2.36,4.15,3.53c37.88-14.67,83.53-14.5,107.3-59.02
		c-9.7-4.53-18.82-8.78-28.85-13.46C570.02,430.21,575.82,411.79,582.08,391.88z M437.19,569.47c-31.11-8.01-58.1-15.3-76.13,16.58
		c-1.44,2.55-4.31,4.26-6.37,6.49c-16.23,17.51-32.42,35.05-48.62,52.58c0.79,1.89,1.58,3.77,2.37,5.66
		c8.91-0.54,20.24,2.25,26.33-2.18C368.58,623.99,401.13,597.63,437.19,569.47z M513.09,627.4c1.77,1.55,3.54,3.1,5.31,4.65
		c31.33-21.98,56.85-50.64,89.35-79.37c-26.07-1.18-46.42-2.49-66.77-2.66c-3.51-0.03-9.33,4.12-10.24,7.4
		C524.3,580.59,518.85,604.04,513.09,627.4z M455.39,555.22c1.96,0.57,3.93,1.14,5.89,1.72c3.25-6.51,7.2-12.77,9.62-19.58
		c7.33-20.65,1.25-38.73-9.89-56.79c-17.58-28.5-33.58-57.98-50.25-87.05c-1.2,0.6-2.4,1.2-3.59,1.81
		C423.24,448.62,439.32,501.92,455.39,555.22z M584.1,328.04c-33.31-8.25-63.79-19.54-91.7,9.2c22.64,14.59,44.74,28.83,67.99,43.81
		C568.9,362.01,576.05,346.02,584.1,328.04z M154.7,511.97c22.16,19.34,41.67,36.57,61.51,53.41c2.32,1.97,7.24,3.44,9.63,2.31
		c13.86-6.52,27.33-13.88,42.15-21.59C233.65,521.01,199.44,505.32,154.7,511.97z M781.65,185.22c1.71-3.64,3.41-7.28,5.12-10.93
		c-10.53-8.25-21.77-15.74-31.44-24.9c-19.9-18.84-30.66-20.62-55.49-6.9c2.28,10.66,3.9,21.52,7.17,31.87
		c1.33,4.21,6.12,10.23,9.56,10.38C738.23,185.69,759.95,185.22,781.65,185.22z M283.29,539.45c29.31,0,56.25,0,83.68,0
		c-14.36-21.47-29.53-44.14-46.09-68.89c-11.96,21.4-22.03,39.33-31.99,57.31C286.92,531.42,285.33,535.19,283.29,539.45z
		 M375.35,562.49c-0.85-2.15-1.71-4.31-2.56-6.46c-47.95-16.55-105.39-9.43-129.47,16.67c35.26,0,69.91,0.7,104.5-0.47
		C357.09,571.92,366.17,565.9,375.35,562.49z M597.72,473.73c-21.31,23.36-39.39,43.18-60.8,66.65c27.36,1.37,49.81,2.5,74.78,3.75
		C606.98,520.41,602.81,499.4,597.72,473.73z M337.78,471.37c-1.12,0.84-2.23,1.69-3.35,2.53c10.04,15.69,22.31,30.42,29.67,47.28
		c15.15,34.7,44.41,35.41,79.75,37C406.01,527.22,371.89,499.3,337.78,471.37z M569.89,197.34c-1.61,25.79-3.1,49.51-4.58,73.23
		c1.56,0.6,3.12,1.2,4.68,1.8c19.23-17.27,38.45-34.54,60.02-53.91C608.74,211,591.23,204.84,569.89,197.34z M307.73,476.18
		c-1.07-1.08-2.14-2.15-3.21-3.23c-26.11,11.33-52.23,22.67-82.02,35.6c19.26,10.68,34.43,19.09,50.9,28.22
		C285.16,516.01,296.44,496.09,307.73,476.18z M622.15,264.19c11.79,28.37,21.96,52.85,34.08,82.01
		c7.7-27.5,13.82-49.39,20.49-73.19C659.2,270.18,643.33,267.62,622.15,264.19z M606,142.09c-11.43,16.35-21.59,30.9-32.83,46.97
		c19.6,6.84,36.75,12.83,53.76,18.76C635.09,180.18,622.26,162.09,606,142.09z M196.52,565.83c0.57-0.99,1.14-1.97,1.71-2.96
		c-21.28-18.94-42.55-37.88-64.61-57.51c-8.94,11.32-16.23,20.54-24.81,31.41C139.75,547.02,168.13,556.43,196.52,565.83z
		 M314.13,741.59c26.28-17.75,13.81-40.49,14.29-60.62c0.43-18.12-9.84-23.95-27.96-22.38
		C305.04,686.43,309.46,713.22,314.13,741.59z M497.29,719.47c13.46-20.46,13.27-52.44-1.14-74.27c-3.94-5.97-15.66-6.81-23.8-10
		c-1.07,1.37-2.13,2.73-3.2,4.1C478.2,665.08,487.25,690.85,497.29,719.47z M615.82,273.42c-7.08,16.11-12.92,28.63-17.94,41.46
		c-1.02,2.6-0.07,8.29,1.8,9.35c14.16,8.05,28.77,15.3,43.24,22.8c0.9-1.35,1.79-2.7,2.69-4.05
		C636.18,320.96,626.75,298.94,615.82,273.42z M569.63,381.96c22.71-1.04,41.88-1.92,64.58-2.95
		c-15.06-16.58-27.98-30.81-42.34-46.62C583.85,350.26,577.48,364.46,569.63,381.96z M447.39,572.69
		c-28.08,22.08-54.08,42.52-80.08,62.97c0.88,1.35,1.76,2.71,2.64,4.06c15.56-6.54,30.66-14.71,46.79-19.24
		C440,613.96,449.45,599.71,447.39,572.69z M686.64,137.76c-13.76-3.86-25.01-7.01-35.92-10.07c-4.58,24.32-8.65,45.92-12.72,67.52
		c2,0.54,4,1.08,6,1.62C657.7,177.85,671.4,158.88,686.64,137.76z M243.94,486.41c60.86-16.62,90.05-38.48,97.25-71.44
		C309.56,438.21,278.52,461.02,243.94,486.41z M67.67,462.57c-1.11,0.8-2.22,1.61-3.33,2.41c12.47,21.37,24.95,42.74,38.66,66.23
		c7.26-10.02,12.81-17.68,19.11-26.38C103.05,490.03,85.36,476.3,67.67,462.57z M588.16,315.28c10.98-25.29,20.57-47.36,30.15-69.42
		c-1.15-0.67-2.31-1.34-3.46-2.01c-16,14.36-32.01,28.72-48.56,43.57C573.63,296.77,579.88,304.73,588.16,315.28z M681.78,261.06
		c8.04-14.73,14.81-27.12,22.38-40.99c-19.91,0-36.28,0-56.04,0C660.16,234.72,669.99,246.7,681.78,261.06z M59.71,409.69
		c-2.29,0.66-4.58,1.32-6.86,1.97c0.93,10-1.92,23.66,3.53,29.28c14.75,15.21,33.02,26.99,49.89,40.14
		c0.92-0.86,1.84-1.71,2.77-2.57C92.59,455.57,76.15,432.63,59.71,409.69z M579.05,440.67c20.3-17.38,38.54-33,58.51-50.1
		C590.59,386.06,586.31,389.72,579.05,440.67z M690.71,147.3c-14.33,19.87-26.98,37.43-41.5,57.56
		C703.49,190.7,703.49,190.7,690.71,147.3z M787.13,255.4c-21.5-10.81-40.74-20.49-62.5-31.44
		C738.94,264.96,746.9,268.94,787.13,255.4z M711.87,223.58c-7.77,14.64-14.12,26.61-22.29,42c15.77-0.96,27.87-1.7,42.52-2.59
		C724.84,248.84,718.96,237.38,711.87,223.58z M623.31,255.9c16.89,2.37,30.32,4.26,48.68,6.84c-13.18-15.39-23.04-26.9-34.37-40.14
		C632.39,234.79,628.4,244.07,623.31,255.9z M748.2,129.09c13.5,12.92,24.27,23.22,35.03,33.52c1.06-0.82,2.12-1.64,3.18-2.46
		c-2.25-12.13-4.49-24.26-6.84-36.94C768.98,125.2,760.76,126.74,748.2,129.09z M473.21,583.02c18.57-15.79,34.33-29.2,50.1-42.61
		c-1.08-1.3-2.15-2.6-3.23-3.9C504.51,550.3,472.93,544.39,473.21,583.02z M461.35,348.14c-20.52,9.73-37.48,17.78-56.92,27
		c7.76,6.02,12.77,9.91,19.05,14.77C435.69,376.44,447,363.97,461.35,348.14z M106.49,320.85c-1.35-0.95-2.71-1.91-4.06-2.86
		c-10.78,19.77-21.55,39.53-33.62,61.67C104.34,370.55,96.83,341,106.49,320.85z M340.91,677.54c-1.38,0.32-2.75,0.64-4.13,0.96
		c1.42,12.99,2.84,25.99,4.4,40.28c8.74,0.78,16.72,1.5,28.49,2.55C358.54,704.39,349.72,690.96,340.91,677.54z M547.77,688.58
		c-13.94-14.86-25.21-26.87-36.48-38.87c-1.06,0.56-2.11,1.13-3.17,1.69c3.91,13.41,7.83,26.81,11.8,40.42
		C528.9,690.78,536.02,689.95,547.77,688.58z M612.19,134.5c8.2,11.96,14.5,21.14,20.8,30.32c1.39-0.38,2.77-0.76,4.16-1.13
		c0-12.28,0-24.57,0-38.74C628.91,128.1,621.8,130.83,612.19,134.5z M335.83,732.52c-6.17,8.33-10.38,14.01-16.13,21.77
		c13.34,3.43,24.69,6.36,41.1,10.58C350.96,752.13,344.18,743.35,335.83,732.52z M510.97,594.35c-11.87,12.25-21.83,22.53-31.4,32.4
		C503.46,632.66,503.46,632.66,510.97,594.35z M605.98,431.31c14.24,5.05,41.42-17.68,44.05-39.04
		C633.58,406.86,620.26,418.66,605.98,431.31z M62.92,397.4c5.94,8.86,10.41,15.51,17.66,26.32c3.65-16.44,6.24-28.08,9.93-44.69
		C79.11,386.61,71.99,391.36,62.92,397.4z M583.65,450.18c17.18,5.76,31.32,10.49,45.47,15.23
		C606.29,437.96,601.98,436.45,583.65,450.18z M542.25,733.77c0.38-1.36,0.77-2.72,1.15-4.07c-8.51-7.32-17.02-14.63-27.04-23.26
		c-4.3,8.3-7.75,14.95-11.88,22.9C518.53,730.98,530.39,732.38,542.25,733.77z M478.98,546.51c21.31-10.17,39.4-18.8,57.5-27.44
		C497.25,524.4,485.16,530.04,478.98,546.51z M557.56,291.28c-6.91,5.92-12.53,10.73-20.94,17.94c15.06,2.74,26.38,4.81,42.08,7.67
		C570.03,306.38,564.17,299.28,557.56,291.28z M613.45,703.54c0.17-2.72,0.35-5.44,0.52-8.16c-13.4-0.94-26.8-1.89-43.93-3.1
		C584.7,713.78,599.72,704.07,613.45,703.54z M394.72,728.6c-0.73,2-1.47,4-2.2,6c9.44,15.96,25.16,9.85,38.59,11.76
		c0.66-2.34,1.33-4.68,1.99-7.01C420.3,735.76,407.51,732.18,394.72,728.6z M653.25,385c-0.41-25.78-4.92-30.16-34.14-37.01
		C630.23,360.05,640.3,370.96,653.25,385z M532.74,696.75c-0.55,3.51-1.09,7.02-1.64,10.54c12.35,2.75,24.71,5.5,37.06,8.24
		c0.75-3.35,1.51-6.7,2.26-10.05C557.87,702.57,545.31,699.66,532.74,696.75z M353.35,726.75c-1.09,3.16-2.17,6.32-3.26,9.48
		c11.75,4.9,23.49,9.8,35.24,14.7c1.27-3.01,2.53-6.03,3.8-9.04C377.2,736.84,365.27,731.79,353.35,726.75z M795.09,171.81
		c21.87-6.36,20.53-16.59,4.42-29.15C798.03,152.37,796.56,162.09,795.09,171.81z M659.66,412.85c-20.25,11.26-20.23,15.18,0,33.59
		C659.66,434.53,659.66,425.26,659.66,412.85z M690.06,455.21c-0.11,1.86-0.22,3.71-0.33,5.57c7.83,5.18,15.66,10.37,23.5,15.55
		c1.5-1.07,3-2.14,4.5-3.21c-3.07-5.37-4.93-12.59-9.54-15.58C703.57,454.56,696.21,455.81,690.06,455.21z M632.66,471.43
		c8.93,10.16,16.01,18.23,23.32,26.55C661.71,481.5,654.41,472.48,632.66,471.43z"/>
</g>
</svg>
