<?xml version="1.0" encoding="utf-8"?>
<!-- Generator: Adobe Illustrator 23.0.4, SVG Export Plug-In . SVG Version: 6.00 Build 0)  -->
<svg version="1.1" id="Layer_1" xmlns="http://www.w3.org/2000/svg" xmlns:xlink="http://www.w3.org/1999/xlink" x="0px" y="0px"
	 viewBox="0 0 864 864" style="enable-background:new 0 0 864 864;" xml:space="preserve">
<g>
	<path d="M629.55,205.66c30.34,3.65,58.63,5.07,85.76,11.45c8.86,2.08,14.72,17.06,21.9,26.18c4.76,6.04,9.44,12.15,16.94,21.81
		c4.28-13.95,6.98-24.82,11.01-35.18c2.7-6.93,5.67-15.88,11.31-19.18c26.26-15.4,53.45-29.22,80.43-43.37
		c1.93-1.01,4.85-0.13,10.05-0.13c-4.01,26.27-3.4,53.48-13.18,76.22c-7.52,17.49-26.95,30.87-43.17,43.37
		c-20.57,15.87-35.83,34.15-37.69,60.56c-4.12,58.46-45.25,95.67-78.15,137.53c-4.95,6.29-13.35,10.07-20.53,14.37
		c-57.66,34.56-119.71,58.6-184.06,77.43c-25.18,7.37-26.84,9.8-13.54,31.63c12.69,20.83,29.61,39.09,44.75,58.41
		c7.86,10.03,15.89,19.92,25.76,32.26c-6.84,0.83-10.34,1.91-13.69,1.55c-67.44-7.25-118.51-45.33-165.89-89.52
		c-11.59-10.81-17.98-28.29-30.76-36.43c-14.56-9.27-33.51-11.85-50.84-16.18c-1.29-0.32-6.72,8.44-7.12,13.23
		c-2.28,27.65-5.69,55.53,8.93,81.53c2.25,3.99,1.73,9.53-1.68,17.3c-10.16-10.24-21.67-19.49-30.17-30.97
		c-12.7-17.15-24.55-35.22-34.25-54.18c-5.21-10.19-7.37-23.15-6.95-34.71c0.47-13.13-0.83-21.93-14.49-27.67
		c-67.89-28.52-121.34-75.33-168.19-131.38c-13.93-16.67-26.59-32.65-33.01-53.54c-7.67-25,7.43-44.8,33.85-44.84
		c112.41-0.19,221.64,17.12,327.82,54.94c48.82,17.39,99.06,30.82,148.67,45.98c4.33,1.32,8.77,2.93,13.21,3.12
		c61.55,2.67,122.53-1.88,176.64-33.55c14.63-8.56,21.17-31.24,30.57-47.92c0.86-1.52-3.85-7.46-7.1-9.73
		c-5.26-3.68-11.16-7.13-17.3-8.74c-40.65-10.72-55.31-45.62-72.99-77.7C631.01,217.06,631.13,213.64,629.55,205.66z M338.81,349.9
		c-0.56,1.17-1.13,2.34-1.69,3.51c16.61,18.08,32.8,36.56,50.11,53.94c4.34,4.35,12.53,7.77,18.47,7.13
		c31.39-3.38,62.62-8.2,93.9-12.52c0.09-1.07,0.17-2.14,0.26-3.22C446.17,382.47,392.49,366.18,338.81,349.9z M525.04,407.23
		c-9.51,27.19-18.05,51.62-28.13,80.42c41.54-13.91,78.02-26.11,114.49-38.32c-0.16-1.53-0.31-3.07-0.47-4.6
		C583.38,432.7,555.82,420.67,525.04,407.23z M488.09,487.27c9.82-27.93,18.24-51.9,28.09-79.92
		c-38.01,5.44-71.51,10.23-105.01,15.02c-0.03,1.88-0.06,3.76-0.09,5.64C435.47,446.78,459.86,465.55,488.09,487.27z M501.17,493.92
		c28.57,12.77,52.28,23.98,76.61,33.63c3.78,1.5,13.31-2.7,15.17-6.64c9.5-20.13,17.36-41.04,27.39-65.58
		C579.47,468.56,542.64,480.49,501.17,493.92z M16.29,329.33c17.15,44.41,128.87,146.53,161.8,144.67
		c-7.32-6.12-12.14-10.87-17.64-14.62c-24.17-16.47-47.02-33.79-63.81-58.82c-14.75-21.99-32.62-41.9-49.39-62.51
		C39.16,328.12,30.07,320.17,16.29,329.33z M292.12,504.78c1.72-1.06,3.44-2.12,5.17-3.19c-4.08-17.3-7.75-34.71-12.6-51.79
		c-0.94-3.3-6.21-6.98-9.97-7.62c-25.33-4.26-50.79-7.74-76.2-11.47c-0.48,1.11-0.96,2.23-1.44,3.34
		C228.75,457.63,260.43,481.2,292.12,504.78z M52.75,330.29c58.41,78.97,86.07,118.53,119.02,121.02c-1.63-3.37-2.5-6.48-4.35-8.82
		c-26.36-33.44-53.37-66.39-79.04-100.35C79.08,329.81,68.65,326.76,52.75,330.29z M444.06,534.85c41.86,0,80.33,0,118.8,0
		c0.31-1.81,0.61-3.62,0.92-5.42c-21.83-9.26-43.57-18.78-65.61-27.53c-3.66-1.45-9.77-1.11-12.85,1.08
		C471.85,512.55,459.08,523.1,444.06,534.85z M635.86,449.54c17.71,11.59,30.88,20.59,44.54,28.77c2.41,1.44,8.46,0.81,10.15-1.17
		c16.3-19.07,32.03-38.64,47.93-58.06c-1.15-1.2-2.31-2.41-3.46-3.61C703.78,426.2,672.55,436.93,635.86,449.54z M467.3,617.34
		c1.38-1.61,2.76-3.22,4.14-4.83c-13.5-21.33-27-42.66-39.76-62.82c-15.61,15.4-28.87,28.48-42.61,42.04
		C415.06,600.24,441.18,608.79,467.3,617.34z M267.65,373.3c37.23,12.68,71.06,24.21,104.9,35.74c-6.48-13.1-15-21.88-23.22-30.92
		C315.1,340.45,315.13,340.42,267.65,373.3z M371.73,420.99c0.32-1.29,0.63-2.58,0.95-3.88c-34.04-11.3-68.08-22.6-102.12-33.9
		c-1.05,1.74-2.11,3.48-3.16,5.22c5,10.21,11.11,20.05,14.72,30.74c4.44,13.15,12.17,16.39,25.02,13.71
		C328.56,428.43,350.18,424.91,371.73,420.99z M92.12,333.49c30.29,54.21,58.51,88.96,81.13,98.51c-2.64-8.24-3.88-15.16-6.95-21.15
		c-9.72-18.94-22.19-36.73-29.71-56.45C128.16,332.28,113.4,330.06,92.12,333.49z M679.99,487.8c-19.43-12.95-34-22.65-50.64-33.73
		c-10.84,26.35-20.21,49.1-29.57,71.85c1.17,0.87,2.34,1.75,3.5,2.62C627.28,515.79,651.26,503.05,679.99,487.8z M182.38,499.94
		c-32.54-25.49-63.29-46.45-90.22-71.52c-27.87-25.94-52.03-55.86-80.7-87.2C21.42,385.19,137.2,492.76,182.38,499.94z
		 M856.35,183.18c0.68,1.05,1.36,2.1,2.04,3.16c-26.58,25.76-53.17,51.52-82.33,79.79c24.87-8.52,50.41-11.86,68.1-25.43
		c9.98-7.66,7-32.17,9.96-49.07C854.62,188.77,855.59,186,856.35,183.18z M747.53,402.95c-11.9-10.27-19.81-17.94-28.65-24.32
		c-3.5-2.53-11.37-4.64-13.34-2.79c-17.85,16.79-34.83,34.5-52.07,51.95c1.28,1.92,2.56,3.84,3.84,5.75
		C686.14,423.77,714.97,413.99,747.53,402.95z M465.96,486.67c0.67-1.3,1.34-2.59,2.02-3.89c-22.74-17.86-45.47-35.71-70.5-55.36
		c-2.43,14.03-3.78,24.18-6.01,34.14c-2.91,12.99,1.64,19.58,15.08,20.48C426.37,483.37,446.16,485.11,465.96,486.67z
		 M310.07,439.31c-0.23,1.87-0.46,3.74-0.69,5.61c23.28,10.65,46.56,21.31,72.29,33.08c2.34-18.9,4.19-33.93,6.46-52.25
		C359.79,430.67,334.93,434.99,310.07,439.31z M558.22,546.1c-0.24-1.49-0.47-2.98-0.71-4.47c-37.66,1.95-75.33,3.9-116.45,6.03
		c8.84,17.99,14.4,32.07,31.76,26.96C501.59,566.15,529.78,555.71,558.22,546.1z M518.84,687.85
		c-41.92-27.11-82.02-53.04-124.31-80.39C395.29,637.72,462.46,679.22,518.84,687.85z M217.46,315.21
		c-1.18,2.36-2.36,4.72-3.53,7.08c12.74,13.86,25.33,27.88,38.42,41.4c1.65,1.71,6.55,2.07,8.97,0.95
		c13.68-6.34,27.07-13.32,40.56-20.08c-0.18-1.96-0.36-3.92-0.53-5.88C273.38,330.85,245.42,323.03,217.46,315.21z M141.67,331.01
		c31.8,10.59,61.56,20.5,93.89,31.26C203.13,307.51,189.97,303.11,141.67,331.01z M479.53,496.36c-30.65-2.74-55.58-4.98-82.81-7.42
		c26.48,50.44,31.29,51.49,69.84,18.66C469.4,505.18,472.19,502.72,479.53,496.36z M370.52,566.95c2.75-0.26,5.49-0.52,8.24-0.78
		c0-21.1-0.02-42.2,0.01-63.3c0.02-10.99-5.95-15.22-16.17-13.72c-7.36,1.08-14.59,3.08-24.16,5.16
		C349.87,520.19,360.2,543.57,370.52,566.95z M362.66,478.03c-20.16-9.11-42.62-19.26-69.79-31.54
		c5.16,22.97,9.28,41.35,12.88,57.36C325.49,494.89,344.04,486.48,362.66,478.03z M650.34,225.67
		c11.17,46.21,39.39,59.08,85.8,43.17C707.93,254.64,681.28,241.24,650.34,225.67z M146.96,354.7c29.63,67.36,42.8,77.27,86.68,70.6
		C206.87,403.49,178.3,380.23,146.96,354.7z M202.94,480.56c2.7,5.63,2.98,7,3.81,7.84c11.82,11.87,23.66,23.71,35.59,35.47
		c18.64,18.36,28.63,17.19,47.33-6.99C261.63,505.14,234.1,493.61,202.94,480.56z M627.03,442.16
		c-4.27-15.43-5.93-35.94-10.87-36.76c-21.71-3.62-44.37-1.56-66.68-1.56c-0.05,1.89-0.1,3.77-0.15,5.66
		c21.65,9.96,43.3,19.94,64.98,29.82C616.02,440.09,618.03,440.18,627.03,442.16z M382.9,575.43c43.67-23.1,44.25-48.91,5.17-74.13
		C386.4,525.32,384.78,548.53,382.9,575.43z M715.78,364.74c13.06,10.59,23.6,19.14,37.49,30.4c5.97-24.12,10.91-44.11,15.86-64.1
		c-1.76-1.14-3.51-2.27-5.27-3.41C748.96,339.13,734.06,350.63,715.78,364.74z M186.48,436.09c-2.28,1.2-4.55,2.4-6.83,3.6
		c2.89,9.06,3.14,23.15,9.14,26.29c22.28,11.67,46.44,19.74,69.89,29.15c0.68-1.41,1.36-2.81,2.04-4.22
		C235.97,472.65,211.22,454.37,186.48,436.09z M513.93,675.07c-21.33-43.08-54.52-57.96-99.61-63.79
		C449.18,633.59,479.57,653.06,513.93,675.07z M235.38,372.64c-25.74-14.54-58.22-22.61-67.65-16.8
		C186.14,386.73,196.94,389.41,235.38,372.64z M66.69,305.71c23.92,2.99,56.29,34.1,92.73,0
		C125.19,305.71,90.96,305.71,66.69,305.71z M827.23,197.69c-44.58,8.71-57.36,23.12-57.6,60.89
		C789.43,237.64,808.33,217.67,827.23,197.69z M633.76,424.43c13.93-13,30.31-28.29,44.4-41.43
		C638,390.24,629.4,399.29,633.76,424.43z M781.32,303.94c14.8-13.87,29.58-27.72,44.35-41.57c-14.43,0.29-26.77,3.68-38.91,7.66
		C762.54,277.97,761.63,282.25,781.32,303.94z M731.87,258.69c-12.35-35.41-36.43-46.76-75.2-39.49
		C681.18,232.07,704.18,244.14,731.87,258.69z M261.28,604.02c1.46-0.69,2.92-1.38,4.37-2.07c-2.99-15.73-5.99-31.46-9.37-49.24
		c-12.49,6.57-21.64,11.39-33.05,17.39C237.7,582.99,249.49,593.5,261.28,604.02z M724.25,346.2c2.16,0,2.94,0.25,3.32-0.04
		c9.27-7.02,18.49-14.11,27.72-21.17c18-13.76,18.12-18.78-0.44-36.78C744.62,307.6,734.62,326.55,724.25,346.2z M324.1,558.13
		c-15.48-37.34-21.25-38.77-50.38-13.36C290.51,549.22,305.72,553.25,324.1,558.13z M369.89,583.01
		c-9.44-20.62-17.69-38.63-25.93-56.64C347.44,578.35,339.99,581.41,369.89,583.01z M706.07,281.08c28.88,29.67,39.26,21.01,40.17,0
		C732.82,281.08,719.45,281.08,706.07,281.08z M187.5,481.59c2.28,30.46,10.25,37.82,44.34,41.14
		C216.11,508.14,202.88,495.86,187.5,481.59z M328.84,501.95c-22.36,16.29-21.05,22.77,6.69,46.89
		C333.27,532.96,331.25,518.82,328.84,501.95z M11.01,309.12c0.1,2,0.19,4,0.29,5.99c19.76,1.99,39.52,3.99,59.28,5.98
		c0.17-1.88,0.35-3.75,0.52-5.63C50.69,317.26,32.63,294.73,11.01,309.12z M248.42,546.84c-23.02-12.5-25.52-11.13-25.14,12.3
		C231.24,555.24,238.42,551.73,248.42,546.84z"/>
</g>
</svg>
